<svg width="150" height="150" viewBox="0 0 150 150" fill="none" xmlns="http://www.w3.org/2000/svg">
<path d="M146.167 18.5833L134.583 4.58333C132.333 1.75 128.917 0 125 0H25C21.0833 0 17.6667 1.75 15.3333 4.58333L3.83333 18.5833C1.41667 21.4167 0 25.1667 0 29.1667V133.333C0 142.5 7.5 150 16.6667 150H133.333C142.5 150 150 142.5 150 133.333V29.1667C150 25.1667 148.583 21.4167 146.167 18.5833ZM27 16.6667H123L129.75 24.75H20.3333L27 16.6667ZM16.6667 133.333V41.6667H133.333V133.333H16.6667ZM87.0833 58.3333H62.9167V83.3333H41.6667L75 116.667L108.333 83.3333H87.0833V58.3333Z" fill="currentColor"/>
</svg>
