<svg width="150" height="150" viewBox="0 0 150 150" fill="none" xmlns="http://www.w3.org/2000/svg">
<path d="M104.5 135H44.5C38.5326 135 32.8097 132.629 28.5901 128.41C24.3705 124.19 22 118.467 22 112.5V37.5C22 35.5109 21.2098 33.6032 19.8033 32.1967C18.3968 30.7902 16.4891 30 14.5 30C12.5109 30 10.6032 30.7902 9.1967 32.1967C7.79018 33.6032 7 35.5109 7 37.5V112.5C7 122.446 10.9509 131.984 17.9835 139.017C25.0161 146.049 34.5544 150 44.5 150H104.5C106.489 150 108.397 149.21 109.803 147.803C111.21 146.397 112 144.489 112 142.5C112 140.511 111.21 138.603 109.803 137.197C108.397 135.79 106.489 135 104.5 135ZM59.5 82.5C59.5 84.4891 60.2902 86.3968 61.6967 87.8033C63.1032 89.2098 65.0109 90 67 90H104.5C106.489 90 108.397 89.2098 109.803 87.8033C111.21 86.3968 112 84.4891 112 82.5C112 80.5109 111.21 78.6032 109.803 77.1967C108.397 75.7902 106.489 75 104.5 75H67C65.0109 75 63.1032 75.7902 61.6967 77.1967C60.2902 78.6032 59.5 80.5109 59.5 82.5ZM142 52.05C141.922 51.361 141.771 50.6822 141.55 50.025V49.35C141.189 48.5788 140.708 47.87 140.125 47.25L95.125 2.25C94.505 1.66662 93.7962 1.18561 93.025 0.824999C92.8011 0.793201 92.5739 0.793201 92.35 0.824999C91.5881 0.388059 90.7467 0.107582 89.875 0H59.5C53.5326 0 47.8097 2.37053 43.5901 6.5901C39.3705 10.8097 37 16.5326 37 22.5V97.5C37 103.467 39.3705 109.19 43.5901 113.41C47.8097 117.629 53.5326 120 59.5 120H119.5C125.467 120 131.19 117.629 135.41 113.41C139.629 109.19 142 103.467 142 97.5V52.5V52.05ZM97 25.575L116.425 45H104.5C102.511 45 100.603 44.2098 99.1967 42.8033C97.7902 41.3968 97 39.4891 97 37.5V25.575ZM127 97.5C127 99.4891 126.21 101.397 124.803 102.803C123.397 104.21 121.489 105 119.5 105H59.5C57.5109 105 55.6032 104.21 54.1967 102.803C52.7902 101.397 52 99.4891 52 97.5V22.5C52 20.5109 52.7902 18.6032 54.1967 17.1967C55.6032 15.7902 57.5109 15 59.5 15H82V37.5C82.0203 40.0586 82.4768 42.5949 83.35 45H67C65.0109 45 63.1032 45.7902 61.6967 47.1967C60.2902 48.6032 59.5 50.5109 59.5 52.5C59.5 54.4891 60.2902 56.3968 61.6967 57.8033C63.1032 59.2098 65.0109 60 67 60H127V97.5Z" fill="black"/>
</svg>
