<svg width="150" height="150" viewBox="0 0 150 150" fill="none" xmlns="http://www.w3.org/2000/svg">
<path d="M53.7542 150C47.2321 149.969 40.7814 148.64 34.7775 146.092C28.7736 143.545 23.3365 139.828 18.7826 135.159C14.2628 130.875 10.6321 125.742 8.09831 120.054C5.56447 114.365 4.17721 108.233 4.0159 102.008C3.85458 95.7826 4.92239 89.5867 7.15822 83.7747C9.39405 77.9627 12.754 72.6486 17.0458 68.1365L75.1476 9.48206C78.2504 6.38496 81.9486 3.94877 86.0191 2.32061C90.0895 0.692436 94.4477 -0.0939461 98.8304 0.00893636C103.525 0.0249234 108.17 0.975502 112.493 2.80524C116.817 4.63497 120.733 7.30724 124.013 10.6662C130.542 16.9519 134.328 25.5588 134.549 34.6188C134.771 43.6787 131.411 52.4605 125.197 59.0581L66.7797 117.712C64.9086 119.596 62.6821 121.09 60.2292 122.106C57.7764 123.122 55.1461 123.641 52.4911 123.633C49.6229 123.637 46.783 123.066 44.1391 121.954C41.4952 120.843 39.1008 119.212 37.0973 117.16C33.0927 113.283 30.7801 107.982 30.6618 102.409C30.5436 96.8363 32.6293 91.4421 36.4657 87.3985L90.3836 33.2438C91.9181 32.2247 93.7606 31.7743 95.5922 31.9706C97.4238 32.1669 99.1291 32.9975 100.413 34.3187C101.696 35.6399 102.478 37.3683 102.621 39.2048C102.765 41.0413 102.262 42.8702 101.199 44.3747L47.2809 98.5294C46.3818 99.6126 45.9442 101.006 46.0623 102.408C46.1804 103.811 46.8448 105.111 47.9124 106.029C49.0232 107.147 50.5207 107.797 52.0964 107.845C52.68 107.853 53.2596 107.746 53.8015 107.529C54.3435 107.312 54.8372 106.99 55.2541 106.582L113.593 47.9271C116.867 44.2893 118.579 39.5089 118.357 34.6194C118.136 29.7298 115.999 25.1238 112.409 21.7971C109.074 18.335 104.539 16.2827 99.7373 16.0624C94.9355 15.8421 90.2319 17.4707 86.5943 20.613L28.2557 78.9516C25.4188 81.9986 23.2125 85.5765 21.7637 89.4793C20.3148 93.3822 19.652 97.5331 19.8134 101.693C19.9748 105.853 20.9572 109.94 22.7042 113.719C24.4511 117.498 26.928 120.894 29.9924 123.712C33.0655 126.898 36.7426 129.439 40.8088 131.188C44.8751 132.936 49.2491 133.857 53.6752 133.896C57.4915 133.927 61.2762 133.203 64.8121 131.767C68.348 130.331 71.5653 128.211 74.2793 125.528L132.618 66.8734C133.349 66.1373 134.217 65.5524 135.174 65.1521C136.131 64.7518 137.158 64.5438 138.195 64.5402C139.232 64.5365 140.26 64.7372 141.22 65.1307C142.179 65.5243 143.052 66.103 143.788 66.8339C144.524 67.5648 145.109 68.4335 145.51 69.3904C145.91 70.3473 146.118 71.3737 146.121 72.4109C146.125 73.4482 145.924 74.476 145.531 75.4357C145.137 76.3955 144.559 77.2682 143.828 78.0043L85.4891 136.659C81.3471 140.874 76.4086 144.224 70.9606 146.514C65.5127 148.805 59.6639 149.99 53.7542 150Z" fill="currentColor"/>
</svg>
