<svg width="150" height="150" viewBox="0 0 150 150" fill="none" xmlns="http://www.w3.org/2000/svg">
<path d="M120.258 84.0559V60.1474C120.247 49.4947 116.467 39.1895 109.586 31.0569C102.706 22.9243 93.1695 17.4889 82.6658 15.7135V7.51842C82.6658 5.52441 81.8737 3.61207 80.4637 2.20209C79.0537 0.792117 77.1414 0 75.1474 0C73.1534 0 71.241 0.792117 69.831 2.20209C68.4211 3.61207 67.6289 5.52441 67.6289 7.51842V15.7135C57.1253 17.4889 47.5888 22.9243 40.7084 31.0569C33.828 39.1895 30.0476 49.4947 30.0368 60.1474V84.0559C25.6495 85.6071 21.8493 88.4773 19.1572 92.2731C16.4652 96.0689 15.0131 100.604 15 105.258V120.295C15 122.289 15.7921 124.201 17.2021 125.611C18.6121 127.021 20.5244 127.813 22.5184 127.813H46.1263C47.8576 134.184 51.6373 139.808 56.8821 143.818C62.1269 147.828 68.5454 150 75.1474 150C81.7493 150 88.1678 147.828 93.4126 143.818C98.6574 139.808 102.437 134.184 104.168 127.813H127.776C129.77 127.813 131.683 127.021 133.093 125.611C134.503 124.201 135.295 122.289 135.295 120.295V105.258C135.282 100.604 133.83 96.0689 131.137 92.2731C128.445 88.4773 124.645 85.6071 120.258 84.0559V84.0559ZM45.0737 60.1474C45.0737 52.1713 48.2421 44.522 53.8821 38.8821C59.522 33.2421 67.1713 30.0737 75.1474 30.0737C83.1234 30.0737 90.7728 33.2421 96.4127 38.8821C102.053 44.522 105.221 52.1713 105.221 60.1474V82.7026H45.0737V60.1474ZM75.1474 135.332C72.5232 135.316 69.9489 134.613 67.6803 133.294C65.4117 131.975 63.5277 130.086 62.2157 127.813H88.079C86.767 130.086 84.883 131.975 82.6144 133.294C80.3458 134.613 77.7715 135.316 75.1474 135.332ZM120.258 112.776H30.0368V105.258C30.0368 103.264 30.829 101.352 32.2389 99.9416C33.6489 98.5316 35.5613 97.7395 37.5553 97.7395H112.739C114.733 97.7395 116.646 98.5316 118.056 99.9416C119.466 101.352 120.258 103.264 120.258 105.258V112.776Z" fill="currentColor"/>
</svg>
