<svg width="150" height="150" viewBox="0 0 150 150" fill="none" xmlns="http://www.w3.org/2000/svg">
<path d="M75 0C94.8912 0 113.968 7.90176 128.033 21.967C142.098 36.0322 150 55.1088 150 75C150 94.8912 142.098 113.968 128.033 128.033C113.968 142.098 94.8912 150 75 150C55.1088 150 36.0322 142.098 21.967 128.033C7.90176 113.968 0 94.8912 0 75C0 55.1088 7.90176 36.0322 21.967 21.967C36.0322 7.90176 55.1088 0 75 0V0ZM75 12.5C66.7924 12.5 58.6651 14.1166 51.0823 17.2575C43.4994 20.3984 36.6095 25.0022 30.8058 30.8058C19.0848 42.5269 12.5 58.424 12.5 75C12.5 90 17.8125 103.75 26.625 114.562L114.562 26.625C103.404 17.4858 89.4236 12.4944 75 12.5ZM75 137.5C91.576 137.5 107.473 130.915 119.194 119.194C130.915 107.473 137.5 91.576 137.5 75C137.5 60 132.188 46.25 123.375 35.4375L35.4375 123.375C46.5962 132.514 60.5764 137.506 75 137.5Z" fill="currentColor"/>
</svg>
