<svg width="150" height="150" viewBox="0 0 150 150" fill="none" xmlns="http://www.w3.org/2000/svg">
<path d="M80.2045 111.068C79.8692 110.76 79.5037 110.486 79.1136 110.25C78.7656 109.98 78.3734 109.773 77.9545 109.636C77.5485 109.429 77.1107 109.29 76.6591 109.227C75.3529 108.951 73.9928 109.094 72.7727 109.636C71.9266 109.943 71.1582 110.431 70.5219 111.067C69.8857 111.704 69.3971 112.472 69.0909 113.318C68.7092 114.127 68.5224 115.015 68.5455 115.909C68.5346 116.796 68.6967 117.676 69.0227 118.5C69.4181 119.315 69.9227 120.072 70.5227 120.75C71.1598 121.382 71.9154 121.882 72.7461 122.221C73.5768 122.56 74.4663 122.732 75.3636 122.727C76.258 122.75 77.1454 122.564 77.9545 122.182C78.7808 121.837 79.5418 121.352 80.2045 120.75C80.8365 120.113 81.3364 119.357 81.6757 118.527C82.015 117.696 82.187 116.806 82.1818 115.909C82.171 115.018 81.9857 114.138 81.6364 113.318C81.3119 112.481 80.8253 111.717 80.2045 111.068V111.068ZM51.8409 82.9773C51.4928 82.7074 51.1007 82.4998 50.6818 82.3636C50.2847 82.1084 49.8464 81.9239 49.3864 81.8182C48.5117 81.6146 47.6019 81.6146 46.7273 81.8182L45.5 82.2273L44.2727 82.8409L43.25 83.6591C41.9718 84.9999 41.2631 86.7839 41.2727 88.6364C41.2675 89.5337 41.4395 90.4232 41.7788 91.2539C42.1181 92.0846 42.6181 92.8402 43.25 93.4773C43.9127 94.0795 44.6737 94.5638 45.5 94.9091C46.5329 95.3335 47.6543 95.4976 48.7655 95.3871C49.8768 95.2767 50.9439 94.8949 51.873 94.2755C52.8022 93.656 53.565 92.8178 54.0944 91.8346C54.6238 90.8513 54.9035 89.7531 54.9091 88.6364C54.884 86.8311 54.1777 85.1021 52.9318 83.7955L51.8409 82.9773ZM52.9318 111.068C52.2834 110.447 51.5188 109.961 50.6818 109.636C49.4476 109.064 48.0704 108.874 46.7273 109.091L45.5 109.5C45.0655 109.649 44.6528 109.856 44.2727 110.114C43.9155 110.365 43.574 110.639 43.25 110.932C42.6293 111.58 42.1427 112.345 41.8182 113.182C41.4575 113.998 41.2711 114.88 41.2711 115.773C41.2711 116.665 41.4575 117.548 41.8182 118.364C42.1635 119.19 42.6477 119.951 43.25 120.614C43.8758 121.27 44.6262 121.795 45.4575 122.158C46.2887 122.521 47.184 122.715 48.0909 122.727C48.9853 122.75 49.8726 122.564 50.6818 122.182C51.5081 121.837 52.2691 121.352 52.9318 120.75C53.5341 120.087 54.0184 119.326 54.3636 118.5C54.7244 117.684 54.9107 116.801 54.9107 115.909C54.9107 115.017 54.7244 114.134 54.3636 113.318C54.0391 112.481 53.5526 111.717 52.9318 111.068V111.068ZM72.7727 82.3636C71.9358 82.6881 71.1712 83.1747 70.5227 83.7955C69.2768 85.1021 68.5706 86.8311 68.5455 88.6364C68.551 89.7531 68.8308 90.8513 69.3602 91.8346C69.8895 92.8178 70.6523 93.656 71.5815 94.2755C72.5107 94.8949 73.5778 95.2767 74.689 95.3871C75.8002 95.4976 76.9216 95.3335 77.9545 94.9091C78.7808 94.5638 79.5418 94.0795 80.2045 93.4773C80.8365 92.8402 81.3364 92.0846 81.6757 91.2539C82.015 90.4232 82.187 89.5337 82.1818 88.6364C82.1567 86.8311 81.4505 85.1021 80.2045 83.7955C79.2457 82.8494 78.0282 82.2085 76.7055 81.9537C75.3829 81.6988 74.0144 81.8415 72.7727 82.3636ZM107.477 111.068C106.815 110.466 106.054 109.982 105.227 109.636C103.986 109.114 102.617 108.972 101.294 109.226C99.9718 109.481 98.7543 110.122 97.7955 111.068C97.1747 111.717 96.6881 112.481 96.3636 113.318C96.0029 114.134 95.8166 115.017 95.8166 115.909C95.8166 116.801 96.0029 117.684 96.3636 118.5C96.7089 119.326 97.1932 120.087 97.7955 120.75C98.4325 121.382 99.1881 121.882 100.019 122.221C100.85 122.56 101.739 122.732 102.636 122.727C103.531 122.75 104.418 122.564 105.227 122.182C106.054 121.837 106.815 121.352 107.477 120.75C108.423 119.791 109.064 118.574 109.319 117.251C109.574 115.928 109.431 114.56 108.909 113.318C108.585 112.481 108.098 111.717 107.477 111.068V111.068ZM102.636 27.2727H48.0909C46.2826 27.2727 44.5484 27.9911 43.2697 29.2697C41.9911 30.5484 41.2727 32.2826 41.2727 34.0909V61.3636C41.2727 63.1719 41.9911 64.9062 43.2697 66.1848C44.5484 67.4635 46.2826 68.1818 48.0909 68.1818H102.636C104.445 68.1818 106.179 67.4635 107.458 66.1848C108.736 64.9062 109.455 63.1719 109.455 61.3636V34.0909C109.455 32.2826 108.736 30.5484 107.458 29.2697C106.179 27.9911 104.445 27.2727 102.636 27.2727ZM95.8182 54.5455H54.9091V40.9091H95.8182V54.5455ZM116.273 0H34.4545C29.0297 0 23.827 2.15503 19.991 5.991C16.155 9.82697 14 15.0297 14 20.4545V129.545C14 134.97 16.155 140.173 19.991 144.009C23.827 147.845 29.0297 150 34.4545 150H116.273C121.698 150 126.9 147.845 130.736 144.009C134.572 140.173 136.727 134.97 136.727 129.545V20.4545C136.727 15.0297 134.572 9.82697 130.736 5.991C126.9 2.15503 121.698 0 116.273 0V0ZM123.091 129.545C123.091 131.354 122.373 133.088 121.094 134.367C119.815 135.645 118.081 136.364 116.273 136.364H34.4545C32.6463 136.364 30.912 135.645 29.6334 134.367C28.3547 133.088 27.6364 131.354 27.6364 129.545V20.4545C27.6364 18.6463 28.3547 16.912 29.6334 15.6334C30.912 14.3547 32.6463 13.6364 34.4545 13.6364H116.273C118.081 13.6364 119.815 14.3547 121.094 15.6334C122.373 16.912 123.091 18.6463 123.091 20.4545V129.545ZM106.386 82.9773C106.038 82.7074 105.646 82.4998 105.227 82.3636C104.821 82.156 104.383 82.0178 103.932 81.9546C103.057 81.7509 102.147 81.7509 101.273 81.9546L100.045 82.3636L98.8182 82.9773L97.7955 83.7955C96.5495 85.1021 95.8433 86.8311 95.8182 88.6364C95.8237 89.7531 96.1035 90.8513 96.6329 91.8346C97.1623 92.8178 97.9251 93.656 98.8542 94.2755C99.7834 94.8949 100.85 95.2767 101.962 95.3871C103.073 95.4976 104.194 95.3335 105.227 94.9091C106.054 94.5638 106.815 94.0795 107.477 93.4773C108.109 92.8402 108.609 92.0846 108.948 91.2539C109.288 90.4232 109.46 89.5337 109.455 88.6364C109.429 86.8311 108.723 85.1021 107.477 83.7955L106.386 82.9773Z" fill="rgb(110,118,142)"/>
</svg>
