<svg width="150" height="150" viewBox="0 0 150 150" fill="none" xmlns="http://www.w3.org/2000/svg">
<path d="M127.5 15H112.5V7.5C112.5 5.51088 111.71 3.60322 110.303 2.1967C108.897 0.790176 106.989 0 105 0C103.011 0 101.103 0.790176 99.6967 2.1967C98.2902 3.60322 97.5 5.51088 97.5 7.5V15H52.5V7.5C52.5 5.51088 51.7098 3.60322 50.3033 2.1967C48.8968 0.790176 46.9891 0 45 0C43.0109 0 41.1032 0.790176 39.6967 2.1967C38.2902 3.60322 37.5 5.51088 37.5 7.5V15H22.5C16.5326 15 10.8097 17.3705 6.5901 21.5901C2.37053 25.8097 0 31.5326 0 37.5V127.5C0 133.467 2.37053 139.19 6.5901 143.41C10.8097 147.629 16.5326 150 22.5 150H127.5C133.467 150 139.19 147.629 143.41 143.41C147.629 139.19 150 133.467 150 127.5V37.5C150 31.5326 147.629 25.8097 143.41 21.5901C139.19 17.3705 133.467 15 127.5 15V15ZM135 127.5C135 129.489 134.21 131.397 132.803 132.803C131.397 134.21 129.489 135 127.5 135H22.5C20.5109 135 18.6032 134.21 17.1967 132.803C15.7902 131.397 15 129.489 15 127.5V75H135V127.5ZM135 60H15V37.5C15 35.5109 15.7902 33.6032 17.1967 32.1967C18.6032 30.7902 20.5109 30 22.5 30H37.5V37.5C37.5 39.4891 38.2902 41.3968 39.6967 42.8033C41.1032 44.2098 43.0109 45 45 45C46.9891 45 48.8968 44.2098 50.3033 42.8033C51.7098 41.3968 52.5 39.4891 52.5 37.5V30H97.5V37.5C97.5 39.4891 98.2902 41.3968 99.6967 42.8033C101.103 44.2098 103.011 45 105 45C106.989 45 108.897 44.2098 110.303 42.8033C111.71 41.3968 112.5 39.4891 112.5 37.5V30H127.5C129.489 30 131.397 30.7902 132.803 32.1967C134.21 33.6032 135 35.5109 135 37.5V60Z" fill="rgb(110,118,142)"/>
</svg>
