<svg width="150" height="150" viewBox="0 0 150 150" fill="none" xmlns="http://www.w3.org/2000/svg">
<path d="M139.586 128.929C144.284 122.632 147.507 115.36 149.019 107.651C150.531 99.9419 150.293 91.9915 148.321 84.3868C146.35 76.782 142.696 69.717 137.629 63.7131C132.563 57.7091 126.213 52.9196 119.047 49.6978C117.487 40.7185 113.9 32.2132 108.559 24.8279C103.219 17.4427 96.2654 11.3719 88.2271 7.07676C80.1888 2.78166 71.2772 0.375287 62.1695 0.0404809C53.0618 -0.294325 43.9976 1.45125 35.6656 5.14456C27.3337 8.83787 19.9531 14.3818 14.0848 21.355C8.21657 28.3282 4.01493 36.5472 1.79919 45.3877C-0.416549 54.2281 -0.588094 63.4572 1.29759 72.3739C3.18328 81.2905 7.07658 89.66 12.6817 96.8465L2.26248 107.191C1.22237 108.245 0.517795 109.583 0.237646 111.038C-0.0425043 112.492 0.114328 113.996 0.688354 115.361C1.25069 116.73 2.20564 117.902 3.43286 118.729C4.66008 119.556 6.10465 120.001 7.58451 120.009H50.2357C54.4832 128.963 61.1799 136.532 69.5506 141.838C77.9213 147.144 87.6236 149.971 97.5344 149.992H142.509C143.989 149.985 145.434 149.539 146.661 148.712C147.888 147.885 148.843 146.713 149.405 145.344C149.98 143.979 150.136 142.475 149.856 141.021C149.576 139.567 148.871 138.228 147.831 137.174L139.586 128.929ZM45.0636 97.5211C45.0739 100.031 45.2744 102.537 45.6633 105.017H25.6494L28.273 102.468C28.9756 101.772 29.5332 100.943 29.9138 100.029C30.2943 99.1156 30.4902 98.1359 30.4902 97.1463C30.4902 96.1568 30.2943 95.1771 29.9138 94.2636C29.5332 93.3502 28.9756 92.5211 28.273 91.8243C24.072 87.6694 20.7416 82.7187 18.4763 77.2616C16.2111 71.8045 15.0566 65.9505 15.0803 60.042C15.0803 48.1139 19.8188 36.6744 28.2532 28.2399C36.6876 19.8055 48.1272 15.0671 60.0553 15.0671C69.3627 15.0111 78.4537 17.8734 86.0503 23.2515C93.6468 28.6296 99.367 36.2531 102.407 45.0504H97.5344C83.6183 45.0504 70.2721 50.5785 60.432 60.4187C50.5918 70.2589 45.0636 83.605 45.0636 97.5211ZM124.07 135L124.444 135.375H97.5344C88.8643 135.36 80.4677 132.339 73.775 126.827C67.0824 121.315 62.5077 113.653 60.8303 105.147C59.1529 96.6406 60.4766 87.8158 64.5758 80.1759C68.6751 72.5361 75.2963 66.5537 83.3115 63.248C91.3267 59.9423 100.24 59.5177 108.533 62.0466C116.826 64.5755 123.986 69.9015 128.793 77.1171C133.6 84.3328 135.756 92.9918 134.895 101.619C134.034 110.246 130.208 118.308 124.07 124.431C122.657 125.815 121.849 127.701 121.821 129.678C121.825 130.67 122.026 131.651 122.412 132.565C122.798 133.478 123.361 134.306 124.07 135V135Z" fill="rgb(110,118,142)"/>
</svg>
