<svg width="150" height="150" viewBox="0 0 150 150" fill="none" xmlns="http://www.w3.org/2000/svg">
<path d="M92.608 74.9893L146.306 21.4085C148.658 19.0566 149.979 15.8668 149.979 12.5408C149.979 9.21478 148.658 6.02498 146.306 3.67312C143.955 1.32126 140.765 0 137.44 0C134.114 0 130.925 1.32126 128.573 3.67312L75 57.3789L21.4268 3.67312C19.0752 1.32126 15.8859 -2.47808e-08 12.5603 0C9.23478 2.47809e-08 6.04543 1.32126 3.69391 3.67312C1.34239 6.02498 0.0213119 9.21478 0.0213119 12.5408C0.0213119 15.8668 1.34239 19.0566 3.69391 21.4085L57.392 74.9893L3.69391 128.57C2.52343 129.731 1.59441 131.113 0.960411 132.635C0.326416 134.157 0 135.789 0 137.438C0 139.087 0.326416 140.719 0.960411 142.241C1.59441 143.763 2.52343 145.144 3.69391 146.306C4.85482 147.476 6.236 148.405 7.75777 149.039C9.27954 149.674 10.9118 150 12.5603 150C14.2089 150 15.8411 149.674 17.3629 149.039C18.8847 148.405 20.2659 147.476 21.4268 146.306L75 92.5998L128.573 146.306C129.734 147.476 131.115 148.405 132.637 149.039C134.159 149.674 135.791 150 137.44 150C139.088 150 140.72 149.674 142.242 149.039C143.764 148.405 145.145 147.476 146.306 146.306C147.477 145.144 148.406 143.763 149.04 142.241C149.674 140.719 150 139.087 150 137.438C150 135.789 149.674 134.157 149.04 132.635C148.406 131.113 147.477 129.731 146.306 128.57L92.608 74.9893Z" fill="currentColor"/>
</svg>
