<svg width="150" height="150" viewBox="0 0 150 150" fill="none" xmlns="http://www.w3.org/2000/svg">
<path d="M133.333 133.333H16.6667V16.6667H133.333V133.333ZM133.333 0H16.6667C12.2464 0 8.00716 1.75595 4.88155 4.88155C1.75595 8.00716 0 12.2464 0 16.6667V133.333C0 137.754 1.75595 141.993 4.88155 145.118C8.00716 148.244 12.2464 150 16.6667 150H133.333C137.754 150 141.993 148.244 145.118 145.118C148.244 141.993 150 137.754 150 133.333V16.6667C150 12.2464 148.244 8.00716 145.118 4.88155C141.993 1.75595 137.754 0 133.333 0ZM112.5 110.417C112.5 97.9167 87.5 91.6667 75 91.6667C62.5 91.6667 37.5 97.9167 37.5 110.417V116.667H112.5V110.417ZM75 77.0833C79.9728 77.0833 84.7419 75.1079 88.2582 71.5916C91.7746 68.0753 93.75 63.3061 93.75 58.3333C93.75 53.3605 91.7746 48.5914 88.2582 45.0751C84.7419 41.5588 79.9728 39.5833 75 39.5833C70.0272 39.5833 65.2581 41.5588 61.7417 45.0751C58.2254 48.5914 56.25 53.3605 56.25 58.3333C56.25 63.3061 58.2254 68.0753 61.7417 71.5916C65.2581 75.1079 70.0272 77.0833 75 77.0833Z" fill="currentColor"/>
</svg>
