<svg width="150" height="150" viewBox="0 0 150 150" fill="none" xmlns="http://www.w3.org/2000/svg">
<path d="M142.5 30.0083H105V17.4841C104.824 12.6831 102.752 8.14771 99.2368 4.87219C95.722 1.59667 91.0518 -0.151703 86.25 0.0103376H63.75C58.9482 -0.151703 54.278 1.59667 50.7632 4.87219C47.2485 8.14771 45.1759 12.6831 45 17.4841V30.0083H7.5C5.51088 30.0083 3.60322 30.7984 2.1967 32.2048C0.790176 33.6112 0 35.5188 0 37.5078C0 39.4967 0.790176 41.4043 2.1967 42.8107C3.60322 44.2171 5.51088 45.0072 7.5 45.0072H15V127.502C15 133.469 17.3705 139.191 21.5901 143.41C25.8097 147.63 31.5326 150 37.5 150H112.5C118.467 150 124.19 147.63 128.41 143.41C132.629 139.191 135 133.469 135 127.502V45.0072H142.5C144.489 45.0072 146.397 44.2171 147.803 42.8107C149.21 41.4043 150 39.4967 150 37.5078C150 35.5188 149.21 33.6112 147.803 32.2048C146.397 30.7984 144.489 30.0083 142.5 30.0083ZM60 17.4841C60 16.2842 61.575 15.0093 63.75 15.0093H86.25C88.425 15.0093 90 16.2842 90 17.4841V30.0083H60V17.4841ZM120 127.502C120 129.491 119.21 131.398 117.803 132.804C116.397 134.211 114.489 135.001 112.5 135.001H37.5C35.5109 135.001 33.6032 134.211 32.1967 132.804C30.7902 131.398 30 129.491 30 127.502V45.0072H120V127.502Z" fill="currentColor"/>
</svg>
