<svg width="150" height="150" viewBox="0 0 150 150" fill="none" xmlns="http://www.w3.org/2000/svg">
<path d="M82.5 105H7.5C5.51088 105 3.60322 105.79 2.1967 107.197C0.790176 108.603 0 110.511 0 112.5C0 114.489 0.790176 116.397 2.1967 117.803C3.60322 119.21 5.51088 120 7.5 120H82.5C84.4891 120 86.3968 119.21 87.8033 117.803C89.2098 116.397 90 114.489 90 112.5C90 110.511 89.2098 108.603 87.8033 107.197C86.3968 105.79 84.4891 105 82.5 105ZM7.5 45H142.5C144.489 45 146.397 44.2098 147.803 42.8033C149.21 41.3968 150 39.4891 150 37.5C150 35.5109 149.21 33.6032 147.803 32.1967C146.397 30.7902 144.489 30 142.5 30H7.5C5.51088 30 3.60322 30.7902 2.1967 32.1967C0.790176 33.6032 0 35.5109 0 37.5C0 39.4891 0.790176 41.3968 2.1967 42.8033C3.60322 44.2098 5.51088 45 7.5 45V45ZM142.5 67.5H7.5C5.51088 67.5 3.60322 68.2902 2.1967 69.6967C0.790176 71.1032 0 73.0109 0 75C0 76.9891 0.790176 78.8968 2.1967 80.3033C3.60322 81.7098 5.51088 82.5 7.5 82.5H142.5C144.489 82.5 146.397 81.7098 147.803 80.3033C149.21 78.8968 150 76.9891 150 75C150 73.0109 149.21 71.1032 147.803 69.6967C146.397 68.2902 144.489 67.5 142.5 67.5Z" fill="currentColor"/>
</svg>
