<svg width="150" height="150" viewBox="0 0 150 150" fill="none" xmlns="http://www.w3.org/2000/svg">
<path d="M126.924 0H22.9328C19.1197 0 16 3.06818 16 6.81818V143.182C16 146.932 19.1197 150 22.9328 150H126.924C130.737 150 133.857 146.932 133.857 143.182V6.81818C133.857 3.06818 130.737 0 126.924 0ZM119.992 136.364H29.8655V13.6364H119.992V136.364ZM46.3309 91.1932C46.3309 87.9545 49.104 85.2273 52.3971 85.2273H72.8487C76.1418 85.2273 78.9149 87.9545 78.9149 91.1932C78.9149 94.4318 76.1418 97.1591 72.8487 97.1591H52.3971C48.9307 97.1591 46.3309 94.4318 46.3309 91.1932ZM47.1975 63.9205C47.1975 60.6818 49.9706 57.9545 53.2637 57.9545H94.5137C97.8067 57.9545 100.58 60.6818 100.58 63.9205C100.58 67.1591 97.98 69.8864 94.5137 69.8864H53.2637C49.9706 69.8864 47.1975 67.1591 47.1975 63.9205ZM47.1975 38.3523C47.1975 35.1136 49.9706 32.3864 53.2637 32.3864H94.5137C97.8067 32.3864 100.58 35.1136 100.58 38.3523C100.58 41.5909 97.98 44.3182 94.5137 44.3182H53.2637C49.9706 44.3182 47.1975 41.5909 47.1975 38.3523ZM98.6733 87.4432C99.7132 88.4659 100.407 90 100.407 91.7045C100.407 93.2386 99.7132 94.7727 98.6733 95.9659C97.6334 97.1591 95.9002 97.6705 94.3403 97.6705C92.7805 97.6705 91.2206 96.9886 90.0074 95.9659C88.7941 94.9432 88.2742 93.4091 88.2742 91.7045C88.2742 90.1705 88.9674 88.6364 90.0074 87.4432C92.2605 85.2273 96.4202 85.2273 98.6733 87.4432Z" fill="currentColor"/>
</svg>
