<svg width="150" height="150" viewBox="0 0 150 150" fill="none" xmlns="http://www.w3.org/2000/svg">
<path fill-rule="evenodd" clip-rule="evenodd" d="M123.692 13.7435C122.042 13.7435 120.408 14.0685 118.884 14.6999C117.359 15.3314 115.974 16.2569 114.807 17.4236L23.329 108.902L16.6657 133.334L41.098 126.671L132.576 35.1925C133.743 34.0258 134.669 32.6407 135.3 31.1163C135.931 29.5919 136.256 27.9581 136.256 26.3081C136.256 24.658 135.931 23.0242 135.3 21.4998C134.669 19.9754 133.743 18.5903 132.576 17.4236C131.41 16.2569 130.025 15.3314 128.5 14.6999C126.976 14.0685 125.342 13.7435 123.692 13.7435ZM113.624 2.00258C116.816 0.680477 120.237 0 123.692 0C127.147 0 130.568 0.680477 133.76 2.00258C136.951 3.32468 139.852 5.26252 142.295 7.70545C144.737 10.1484 146.675 13.0485 147.997 16.2404C149.32 19.4323 150 22.8533 150 26.3081C150 29.7629 149.32 33.1839 147.997 36.3757C146.675 39.5676 144.737 42.4677 142.295 44.9107L49.5257 137.679C48.6801 138.525 47.6285 139.135 46.4747 139.45L8.68001 149.758C6.30092 150.407 3.75656 149.731 2.01285 147.987C0.269141 146.243 -0.406548 143.699 0.242294 141.32L10.5499 103.525C10.8646 102.372 11.4749 101.32 12.3205 100.474L105.089 7.70545C107.532 5.26252 110.432 3.32468 113.624 2.00258Z" fill="currentColor"/>
</svg>
