<svg width="150" height="150" viewBox="0 0 150 150" fill="none" xmlns="http://www.w3.org/2000/svg">
<path d="M149.374 71.9801C134.229 36.8174 105.739 15 75 15C44.2607 15 15.7706 36.8174 0.625918 71.9801C0.213087 72.9261 0 73.947 0 74.9791C0 76.0112 0.213087 77.0321 0.625918 77.9781C15.7706 113.141 44.2607 134.958 75 134.958C105.739 134.958 134.229 113.141 149.374 77.9781C149.787 77.0321 150 76.0112 150 74.9791C150 73.947 149.787 72.9261 149.374 71.9801ZM75 119.963C51.2333 119.963 28.7411 102.794 15.7706 74.9791C28.7411 47.1638 51.2333 29.9948 75 29.9948C98.7667 29.9948 121.259 47.1638 134.229 74.9791C121.259 102.794 98.7667 119.963 75 119.963ZM75 44.9895C69.0686 44.9895 63.2705 46.7484 58.3387 50.0437C53.4069 53.339 49.5631 58.0227 47.2933 63.5026C45.0234 68.9825 44.4295 75.0124 45.5867 80.8298C46.7438 86.6472 49.6001 91.9908 53.7942 96.1849C57.9883 100.379 63.3319 103.235 69.1493 104.392C74.9667 105.55 80.9966 104.956 86.4765 102.686C91.9564 100.416 96.6401 96.5722 99.9354 91.6404C103.231 86.7086 104.99 80.9105 104.99 74.9791C104.99 67.0254 101.83 59.3974 96.2058 53.7733C90.5817 48.1492 82.9537 44.9895 75 44.9895ZM75 89.9739C72.0343 89.9739 69.1352 89.0944 66.6693 87.4468C64.2035 85.7991 62.2816 83.4573 61.1466 80.7173C60.0117 77.9774 59.7148 74.9625 60.2933 72.0538C60.8719 69.1451 62.3 66.4733 64.3971 64.3762C66.4942 62.2791 69.166 60.851 72.0747 60.2724C74.9834 59.6939 77.9983 59.9908 80.7383 61.1257C83.4782 62.2607 85.8201 64.1826 87.4677 66.6484C89.1153 69.1143 89.9948 72.0134 89.9948 74.9791C89.9948 78.956 88.415 82.7699 85.6029 85.582C82.7908 88.3941 78.9769 89.9739 75 89.9739Z" fill="currentColor"/>
</svg>
