<svg width="150" height="150" viewBox="0 0 150 150" fill="none" xmlns="http://www.w3.org/2000/svg">
<path d="M148.364 64.2041C147.723 63.4138 146.913 62.7772 145.993 62.341C145.074 61.9048 144.068 61.6802 143.051 61.6837H129.427V54.8718C129.427 49.4518 127.274 44.2539 123.441 40.4215C119.609 36.589 114.411 34.436 108.991 34.436H66.212L64.0322 27.624C62.619 23.627 59.9978 20.1684 56.5316 17.7274C53.0653 15.2864 48.9257 13.9838 44.6863 14.0002H20.4358C15.0159 14.0002 9.81796 16.1532 5.98551 19.9857C2.15305 23.8181 0 29.016 0 34.436V116.179C0 121.599 2.15305 126.797 5.98551 130.629C9.81796 134.462 15.0159 136.615 20.4358 136.615H118.528C123.168 136.601 127.666 135.009 131.281 132.1C134.896 129.19 137.413 125.137 138.418 120.607L149.863 69.9942C150.07 68.9787 150.042 67.9293 149.783 66.9259C149.523 65.9225 149.038 64.9916 148.364 64.2041V64.2041ZM29.7682 117.678C29.4221 119.214 28.5542 120.584 27.3122 121.552C26.0702 122.521 24.5309 123.03 22.9562 122.991H20.4358C18.6292 122.991 16.8965 122.273 15.619 120.996C14.3416 119.718 13.6239 117.986 13.6239 116.179V34.436C13.6239 32.6293 14.3416 30.8967 15.619 29.6192C16.8965 28.3417 18.6292 27.624 20.4358 27.624H44.6863C46.1717 27.5465 47.6417 27.9573 48.8718 28.7937C50.1018 29.6301 51.0243 30.8462 51.4982 32.2561L55.1767 43.4277C55.6138 44.7271 56.4328 45.8643 57.5266 46.6907C58.6204 47.5171 59.9381 47.9943 61.3074 48.0598H108.991C110.798 48.0598 112.53 48.7775 113.808 50.055C115.085 51.3325 115.803 53.0651 115.803 54.8718V61.6837H47.6835C46.1089 61.6452 44.5695 62.1536 43.3275 63.1224C42.0856 64.0911 41.2177 65.4604 40.8716 66.997L29.7682 117.678ZM125.135 117.678C124.789 119.214 123.921 120.584 122.679 121.552C121.437 122.521 119.898 123.03 118.323 122.991H42.3021C42.6539 122.232 42.9058 121.431 43.0514 120.607L53.1331 75.3076H134.876L125.135 117.678Z" fill="rgb(110,118,142)"/>
</svg>
