<svg width="150" height="150" viewBox="0 0 150 150" fill="none" xmlns="http://www.w3.org/2000/svg">
<path d="M77.1502 76.5354C80.7932 73.382 83.7152 69.4818 85.7178 65.0996C87.7205 60.7173 88.7569 55.9555 88.7569 51.1373C88.7569 42.0835 85.1603 33.4006 78.7583 26.9986C72.3563 20.5966 63.6734 17 54.6196 17C45.5659 17 36.8829 20.5966 30.4809 26.9986C24.079 33.4006 20.4824 42.0835 20.4824 51.1373C20.4823 55.9555 21.5188 60.7173 23.5214 65.0996C25.5241 69.4818 28.4461 73.382 32.089 76.5354C22.5315 80.8632 14.4228 87.8521 8.73218 96.6664C3.0416 105.481 0.010049 115.748 0 126.239C0 128.05 0.719319 129.787 1.99971 131.067C3.28011 132.347 5.0167 133.067 6.82745 133.067C8.63821 133.067 10.3748 132.347 11.6552 131.067C12.9356 129.787 13.6549 128.05 13.6549 126.239C13.6549 115.375 17.9708 104.955 25.6532 97.2728C33.3356 89.5904 43.7551 85.2745 54.6196 85.2745C65.4841 85.2745 75.9037 89.5904 83.586 97.2728C91.2684 104.955 95.5843 115.375 95.5843 126.239C95.5843 128.05 96.3037 129.787 97.5841 131.067C98.8644 132.347 100.601 133.067 102.412 133.067C104.223 133.067 105.959 132.347 107.24 131.067C108.52 129.787 109.239 128.05 109.239 126.239C109.229 115.748 106.198 105.481 100.507 96.6664C94.8165 87.8521 86.7077 80.8632 77.1502 76.5354ZM54.6196 71.6196C50.5686 71.6196 46.6085 70.4184 43.2402 68.1677C39.8719 65.9171 37.2467 62.7182 35.6964 58.9755C34.1461 55.2329 33.7405 51.1145 34.5308 47.1414C35.3211 43.1682 37.2719 39.5186 40.1364 36.6541C43.0009 33.7895 46.6505 31.8388 50.6237 31.0485C54.5969 30.2582 58.7152 30.6638 62.4579 32.214C66.2005 33.7643 69.3994 36.3896 71.6501 39.7579C73.9007 43.1262 75.102 47.0862 75.102 51.1373C75.102 56.5695 72.944 61.7793 69.1028 65.6205C65.2617 69.4617 60.0519 71.6196 54.6196 71.6196ZM121.119 73.8044C125.488 68.8841 128.343 62.8058 129.338 56.3011C130.333 49.7965 129.428 43.1428 126.73 37.141C124.032 31.1391 119.657 26.045 114.131 22.4717C108.605 18.8984 102.165 16.9982 95.5843 17C93.7736 17 92.037 17.7193 90.7566 18.9997C89.4762 20.2801 88.7569 22.0167 88.7569 23.8275C88.7569 25.6382 89.4762 27.3748 90.7566 28.6552C92.037 29.9356 93.7736 30.6549 95.5843 30.6549C101.017 30.6549 106.226 32.8129 110.068 36.6541C113.909 40.4952 116.067 45.705 116.067 51.1373C116.057 54.7233 115.106 58.244 113.309 61.3472C111.512 64.4504 108.931 67.0273 105.826 68.8204C104.813 69.4043 103.968 70.2382 103.37 71.2423C102.772 72.2465 102.442 73.3873 102.412 74.5554C102.383 75.7145 102.65 76.8617 103.188 77.889C103.725 78.9163 104.516 79.7897 105.484 80.427L108.147 82.2022L109.034 82.6801C117.264 86.5835 124.207 92.7574 129.046 100.475C133.884 108.192 136.416 117.131 136.344 126.239C136.344 128.05 137.064 129.787 138.344 131.067C139.624 132.347 141.361 133.067 143.172 133.067C144.982 133.067 146.719 132.347 147.999 131.067C149.28 129.787 149.999 128.05 149.999 126.239C150.055 115.762 147.431 105.445 142.376 96.2671C137.321 87.0897 130.004 79.3573 121.119 73.8044Z" fill="currentColor"/>
</svg>
