<svg width="150" height="150" viewBox="0 0 150 150" fill="none" xmlns="http://www.w3.org/2000/svg">
<path d="M6.81818 22.6591L15.5455 14L129.545 128L120.886 136.727L99.8864 115.727C92.0455 118.318 83.7273 119.682 75 119.682C40.9091 119.682 11.7955 98.4773 0 68.5455C4.70455 56.5455 12.2045 45.9773 21.75 37.5909L6.81818 22.6591ZM75 48.0909C80.4249 48.0909 85.6276 50.2459 89.4636 54.0819C93.2995 57.9179 95.4545 63.1206 95.4545 68.5455C95.458 70.8675 95.066 73.1732 94.2955 75.3636L68.1818 49.25C70.3723 48.4794 72.678 48.0875 75 48.0909ZM75 17.4091C109.091 17.4091 138.205 38.6136 150 68.5455C144.435 82.6809 134.979 94.9503 122.727 103.932L113.045 94.1818C122.474 87.6594 130.079 78.8345 135.136 68.5455C129.624 57.295 121.067 47.8166 110.436 41.1875C99.8053 34.5585 87.5282 31.0446 75 31.0455C67.5682 31.0455 60.2727 32.2727 53.4545 34.4545L42.9545 24.0227C52.7727 19.7955 63.6136 17.4091 75 17.4091ZM14.8636 68.5455C20.3757 79.7959 28.9334 89.2743 39.5641 95.9034C50.1947 102.532 62.4718 106.046 75 106.045C79.7045 106.045 84.3409 105.568 88.6364 104.614L73.0909 89C68.3466 88.4915 63.9193 86.3742 60.5453 83.0002C57.1713 79.6262 55.054 75.1989 54.5455 70.4545L31.3636 47.2045C24.6136 53 18.9545 60.2273 14.8636 68.5455Z" fill="currentColor"/>
</svg>
