<svg width="150" height="150" viewBox="0 0 150 150" fill="none" xmlns="http://www.w3.org/2000/svg">
<path d="M135.348 45.1255L90.4021 5.72264C86.2819 2.03739 80.9479 0 75.42 0C69.8922 0 64.5582 2.03739 60.438 5.72264L15.4917 45.1255C13.1124 47.2535 11.2136 49.864 9.92195 52.7832C8.63028 55.7023 7.97534 58.8632 8.00071 62.0552V127.527C8.00071 133.487 10.3684 139.203 14.5829 143.418C18.7975 147.632 24.5136 150 30.4738 150H120.366C126.326 150 132.043 147.632 136.257 143.418C140.472 139.203 142.839 133.487 142.839 127.527V61.9803C142.854 58.8009 142.194 55.6544 140.903 52.749C139.611 49.8435 137.718 47.2451 135.348 45.1255ZM90.4021 135.018H60.438V97.5627C60.438 95.576 61.2272 93.6706 62.632 92.2658C64.0369 90.8609 65.9423 90.0717 67.929 90.0717H82.9111C84.8978 90.0717 86.8032 90.8609 88.208 92.2658C89.6129 93.6706 90.4021 95.576 90.4021 97.5627V135.018ZM127.857 127.527C127.857 129.514 127.068 131.419 125.663 132.824C124.258 134.229 122.353 135.018 120.366 135.018H105.384V97.5627C105.384 91.6025 103.016 85.8864 98.802 81.6719C94.5874 77.4573 88.8713 75.0896 82.9111 75.0896H67.929C61.9688 75.0896 56.2526 77.4573 52.0381 81.6719C47.8236 85.8864 45.4559 91.6025 45.4559 97.5627V135.018H30.4738C28.4871 135.018 26.5817 134.229 25.1769 132.824C23.772 131.419 22.9828 129.514 22.9828 127.527V61.9803C22.9841 60.9167 23.212 59.8656 23.6511 58.8969C24.0903 57.9281 24.7307 57.064 25.5297 56.362L70.476 17.0341C71.843 15.8331 73.6004 15.1708 75.42 15.1708C77.2397 15.1708 78.9971 15.8331 80.3641 17.0341L125.31 56.362C126.109 57.064 126.75 57.9281 127.189 58.8969C127.628 59.8656 127.856 60.9167 127.857 61.9803V127.527Z" fill="rgb(110,118,142)"/>
</svg>
