<svg width="150" height="150" viewBox="0 0 150 150" fill="none" xmlns="http://www.w3.org/2000/svg">
<path d="M150 63.973C150 63.8108 150 63.4865 150 63.3243C150 63.1622 150 63 149.837 62.6757C149.837 62.5135 149.674 62.1892 149.674 62.027C149.674 61.8649 149.51 61.7027 149.51 61.3784C149.347 61.2162 149.347 61.0541 149.184 60.8919C149.021 60.7297 148.857 60.5676 148.857 60.2432L148.694 60.0811L113.439 17.4324C112.134 15.8108 110.338 15 108.38 15H41.4605C39.5019 15 37.7065 15.8108 36.4008 17.4324L1.30906 60.0811L1.14584 60.2432C0.982624 60.4054 0.819407 60.5676 0.819407 60.8919C0.656189 61.0541 0.656189 61.2162 0.492972 61.3784C0.329755 61.5405 0.329755 61.7027 0.329755 62.027C0.329755 62.1892 0.166538 62.3514 0.166538 62.6757C0.166538 62.8378 0.00332023 63 0.00332023 63.3243C0.00332023 63.4865 0.00332023 63.8108 0.00332023 63.973C0.00332023 64.1351 0.00332023 64.1351 0.00332023 64.2973V122.351C-0.159897 129.324 5.71593 135 12.8975 135H136.943C144.124 135 150 129.324 150 122.189V64.1351V63.973ZM44.5616 27.973H105.115L129.598 57.1622H108.053C106.258 57.1622 104.462 58.2973 103.157 59.5946L88.3039 76.6216H61.5362L46.6835 59.5946C45.3777 58.1351 43.7456 57.1622 41.7869 57.1622H20.079L44.5616 27.973ZM136.943 122.027H12.8975V70.1351H38.849L53.0489 86.3513C54.6811 88.2973 57.1294 89.5946 59.7408 89.5946H90.0993C92.7107 89.5946 94.9958 88.1351 96.7912 86.3513L110.991 70.1351H136.943V122.027Z" fill="currentColor"/>
</svg>
