<svg width="150" height="150" viewBox="0 0 150 150" fill="none" xmlns="http://www.w3.org/2000/svg">
<path d="M75.5 71.25C70.5272 71.25 65.7581 69.2746 62.2417 65.7583C58.7254 62.2419 56.75 57.4728 56.75 52.5C56.75 47.5272 58.7254 42.7581 62.2417 39.2417C65.7581 35.7254 70.5272 33.75 75.5 33.75C80.4728 33.75 85.2419 35.7254 88.7583 39.2417C92.2746 42.7581 94.25 47.5272 94.25 52.5C94.25 54.9623 93.765 57.4005 92.8227 59.6753C91.8805 61.9502 90.4994 64.0172 88.7583 65.7583C87.0172 67.4994 84.9502 68.8805 82.6753 69.8227C80.4005 70.765 77.9623 71.25 75.5 71.25ZM75.5 0C61.5761 0 48.2226 5.53123 38.3769 15.3769C28.5312 25.2226 23 38.5761 23 52.5C23 91.875 75.5 150 75.5 150C75.5 150 128 91.875 128 52.5C128 38.5761 122.469 25.2226 112.623 15.3769C102.777 5.53123 89.4239 0 75.5 0Z" fill="black"/>
</svg>
