<svg width="150" height="150" viewBox="0 0 150 150" fill="none" xmlns="http://www.w3.org/2000/svg">
<path d="M75.0525 65.9265C78.0218 65.9265 80.9245 65.046 83.3934 63.3963C85.8623 61.7466 87.7865 59.4019 88.9228 56.6586C90.0592 53.9153 90.3565 50.8967 89.7772 47.9844C89.1979 45.0722 87.768 42.3971 85.6684 40.2975C83.5688 38.1978 80.8937 36.768 77.9814 36.1887C75.0692 35.6094 72.0505 35.9067 69.3072 37.043C66.564 38.1793 64.2192 40.1036 62.5696 42.5725C60.9199 45.0414 60.0394 47.944 60.0394 50.9133C60.0394 54.8951 61.6211 58.7137 64.4366 61.5292C67.2521 64.3447 71.0708 65.9265 75.0525 65.9265ZM69.7229 117.797C70.4207 118.5 71.2509 119.059 72.1657 119.44C73.0804 119.821 74.0616 120.017 75.0525 120.017C76.0435 120.017 77.0246 119.821 77.9394 119.44C78.8541 119.059 79.6843 118.5 80.3822 117.797L111.084 87.0199C118.215 79.8928 123.072 70.8109 125.041 60.923C127.01 51.0352 126.002 40.7855 122.145 31.4705C118.288 22.1555 111.755 14.1936 103.372 8.59177C94.99 2.98999 85.1345 0 75.0525 0C64.9706 0 55.1151 2.98999 46.7326 8.59177C38.3501 14.1936 31.8172 22.1555 27.9602 31.4705C24.1032 40.7855 23.0954 51.0352 25.0643 60.923C27.0331 70.8109 31.8901 79.8928 39.021 87.0199L69.7229 117.797ZM39.2462 47.4603C39.7591 42.1083 41.4608 36.9383 44.227 32.328C46.9932 27.7176 50.7541 23.7832 55.2352 20.812C61.1219 16.9469 68.0103 14.8875 75.0525 14.8875C82.0947 14.8875 88.9832 16.9469 94.8699 20.812C99.321 23.773 103.061 27.6835 105.82 32.2624C108.579 36.8413 110.289 41.9748 110.828 47.2936C111.366 52.6124 110.719 57.9844 108.933 63.0234C107.148 68.0623 104.267 72.6429 100.5 76.4357L75.0525 101.883L49.6053 76.4357C45.8334 72.6796 42.9464 68.1299 41.1544 63.1175C39.3624 58.1052 38.7105 52.7564 39.2462 47.4603ZM127.598 134.987H22.5066C20.5157 134.987 18.6064 135.778 17.1986 137.185C15.7909 138.593 15 140.503 15 142.493C15 144.484 15.7909 146.394 17.1986 147.801C18.6064 149.209 20.5157 150 22.5066 150H127.598C129.589 150 131.499 149.209 132.906 147.801C134.314 146.394 135.105 144.484 135.105 142.493C135.105 140.503 134.314 138.593 132.906 137.185C131.499 135.778 129.589 134.987 127.598 134.987Z" fill="currentColor"/>
</svg>
