<svg width="150" height="150" viewBox="0 0 150 150" fill="none" xmlns="http://www.w3.org/2000/svg">
<path d="M127.5 15H22.5C16.5326 15 10.8097 17.3705 6.5901 21.5901C2.37053 25.8097 0 31.5326 0 37.5V112.5C0 118.467 2.37053 124.19 6.5901 128.41C10.8097 132.629 16.5326 135 22.5 135H127.5C133.467 135 139.19 132.629 143.41 128.41C147.629 124.19 150 118.467 150 112.5V37.5C150 31.5326 147.629 25.8097 143.41 21.5901C139.19 17.3705 133.467 15 127.5 15V15ZM124.425 30L80.325 74.1C79.6278 74.803 78.7983 75.3609 77.8843 75.7417C76.9704 76.1224 75.9901 76.3185 75 76.3185C74.0099 76.3185 73.0296 76.1224 72.1157 75.7417C71.2017 75.3609 70.3722 74.803 69.675 74.1L25.575 30H124.425ZM135 112.5C135 114.489 134.21 116.397 132.803 117.803C131.397 119.21 129.489 120 127.5 120H22.5C20.5109 120 18.6032 119.21 17.1967 117.803C15.7902 116.397 15 114.489 15 112.5V40.575L59.1 84.675C63.3188 88.8885 69.0375 91.2552 75 91.2552C80.9625 91.2552 86.6812 88.8885 90.9 84.675L135 40.575V112.5Z" fill="currentColor"/>
</svg>
