<svg width="158" height="150" viewBox="0 0 158 150" fill="none" xmlns="http://www.w3.org/2000/svg">
<path d="M130.3 40.6316H110.65L67.75 18.0526L19 43.7174V115.895C15.0218 115.895 11.2064 114.309 8.3934 111.486C5.58035 108.663 4 104.834 4 100.842V41.9111C4 36.8684 6.1 33.5568 10.075 31.6753L67.75 3L124.375 31.6753C127.75 33.7826 129.85 36.8684 130.3 40.6316ZM41.5 48.1579H139C142.978 48.1579 146.794 49.7438 149.607 52.5667C152.42 55.3896 154 59.2183 154 63.2105V130.947C154 134.94 152.42 138.768 149.607 141.591C146.794 144.414 142.978 146 139 146H41.5C37.5218 146 33.7064 144.414 30.8934 141.591C28.0804 138.768 26.5 134.94 26.5 130.947V63.2105C26.5 59.2183 28.0804 55.3896 30.8934 52.5667C33.7064 49.7438 37.5218 48.1579 41.5 48.1579ZM139 75.7795V63.2105L90.25 88.1226L41.5 63.2105V75.7795L90.25 100.842L139 75.7795Z" fill="currentColor"/>
</svg>
