<svg width="150" height="150" viewBox="0 0 150 150" fill="none" xmlns="http://www.w3.org/2000/svg">
<path fill-rule="evenodd" clip-rule="evenodd" d="M143.75 32.7452H6.25C2.79999 32.7452 0 29.8903 0 26.3726C0 22.8549 2.79999 20 6.25 20H143.75C147.2 20 150 22.8549 150 26.3726C150 29.8903 147.2 32.7452 143.75 32.7452ZM143.75 81.6021H6.25C2.79999 81.6021 0 78.7471 0 75.2295C0 71.7118 2.79999 68.8569 6.25 68.8569H143.75C147.2 68.8569 150 71.7118 150 75.2295C150 78.7471 147.2 81.6021 143.75 81.6021ZM6.25 130.458H143.75C147.2 130.458 150 127.603 150 124.085C150 120.568 147.2 117.713 143.75 117.713H6.25C2.79999 117.713 0 120.568 0 124.085C0 127.603 2.79999 130.458 6.25 130.458Z" fill="currentColor"/>
</svg>
