<svg width="150" height="150" viewBox="0 0 150 150" fill="none" xmlns="http://www.w3.org/2000/svg">
<path fill-rule="evenodd" clip-rule="evenodd" d="M142.308 24H7.69248C3.46143 24 0 27.5626 0 31.9171V119.007C0 123.361 3.46143 126.924 7.69248 126.924H142.308C146.538 126.924 150 123.362 150 119.007V31.9171C150 27.5626 146.539 24 142.308 24ZM139.419 29.9382L79.4234 76.2546C78.3447 77.0995 76.6888 77.6281 74.9981 77.6203C73.3077 77.6281 71.6521 77.0995 70.5731 76.2546L10.5772 29.9382H139.419ZM140.064 120.875L107.371 79.3097C106.369 78.0351 106.559 76.1641 107.8 75.1332C109.036 74.1019 110.854 74.2979 111.856 75.5725L144.228 116.732V33.6486L82.8819 81.0034C80.5745 82.7728 77.7667 83.5508 74.9976 83.5568C72.2246 83.549 69.4192 82.771 67.1132 81.0034L5.76729 33.6486V116.732L38.1403 75.5725C39.1423 74.2976 40.9578 74.1022 42.1962 75.1332C43.4369 76.1665 43.6268 78.0351 42.6251 79.3097L9.93272 120.875C9.9145 120.899 9.89393 120.918 9.87332 120.938C9.85682 120.953 9.84029 120.969 9.82491 120.986H140.171C140.137 120.949 140.096 120.917 140.064 120.875Z" fill="#ffffff"/>
</svg>
