<svg width="150" height="150" viewBox="0 0 150 150" fill="none" xmlns="http://www.w3.org/2000/svg">
<path fill-rule="evenodd" clip-rule="evenodd" d="M20.1923 40.3845C16.1986 40.3845 12.2946 39.2002 8.97404 36.9815C5.65345 34.7627 3.06536 31.6091 1.53705 27.9195C0.00874898 24.2298 -0.391125 20.1699 0.387997 16.2529C1.16712 12.336 3.09025 8.73812 5.91418 5.91418C8.73812 3.09025 12.336 1.16712 16.2529 0.387997C20.1699 -0.391125 24.2298 0.00874897 27.9195 1.53705C31.6091 3.06536 34.7627 5.65345 36.9815 8.97404C39.2002 12.2946 40.3845 16.1986 40.3845 20.1923C40.3788 25.5458 38.2495 30.6785 34.464 34.464C30.6785 38.2495 25.5458 40.3788 20.1923 40.3845ZM74.9994 40.3845C71.0057 40.3845 67.1018 39.2002 63.7812 36.9815C60.4606 34.7627 57.8725 31.6091 56.3442 27.9195C54.8159 24.2298 54.416 20.1699 55.1951 16.2529C55.9742 12.336 57.8974 8.73812 60.7213 5.91418C63.5452 3.09025 67.1432 1.16712 71.0601 0.387997C74.977 -0.391125 79.037 0.00874898 82.7266 1.53705C86.4163 3.06536 89.5699 5.65345 91.7886 8.97404C94.0074 12.2946 95.1916 16.1986 95.1916 20.1923C95.1859 25.5458 93.0567 30.6785 89.2711 34.464C85.4856 38.2495 80.3529 40.3788 74.9994 40.3845ZM118.588 36.9815C121.909 39.2002 125.813 40.3845 129.807 40.3845C135.16 40.3788 140.293 38.2495 144.078 34.464C147.864 30.6785 149.993 25.5458 149.999 20.1923C149.999 16.1986 148.814 12.2946 146.596 8.97404C144.377 5.65345 141.223 3.06536 137.534 1.53705C133.844 0.00874898 129.784 -0.391125 125.867 0.387997C121.95 1.16712 118.352 3.09025 115.528 5.91418C112.704 8.73812 110.781 12.336 110.002 16.2529C109.223 20.1699 109.623 24.2298 111.151 27.9195C112.68 31.6091 115.268 34.7627 118.588 36.9815ZM20.1923 95.1921C16.1986 95.1921 12.2946 94.0078 8.97404 91.7891C5.65345 89.5703 3.06536 86.4167 1.53705 82.7271C0.00874897 79.0374 -0.391125 74.9774 0.387997 71.0605C1.16712 67.1436 3.09025 63.5457 5.91418 60.7218C8.73812 57.8978 12.336 55.9747 16.2529 55.1956C20.1699 54.4165 24.2298 54.8163 27.9195 56.3446C31.6091 57.8729 34.7627 60.461 36.9815 63.7816C39.2002 67.1022 40.3845 71.0062 40.3845 74.9998C40.3788 80.3534 38.2495 85.4861 34.464 89.2716C30.6785 93.0571 25.5458 95.1864 20.1923 95.1921ZM63.7812 91.7891C67.1018 94.0078 71.0057 95.1921 74.9994 95.1921C80.3529 95.1864 85.4856 93.0571 89.2711 89.2716C93.0567 85.4861 95.1859 80.3534 95.1916 74.9998C95.1916 71.0062 94.0074 67.1022 91.7886 63.7816C89.5699 60.461 86.4163 57.8729 82.7266 56.3446C79.037 54.8163 74.977 54.4165 71.0601 55.1956C67.1432 55.9747 63.5452 57.8978 60.7213 60.7218C57.8974 63.5457 55.9742 67.1436 55.1951 71.0605C54.416 74.9774 54.8159 79.0374 56.3442 82.7271C57.8725 86.4167 60.4606 89.5703 63.7812 91.7891ZM129.807 95.1921C125.813 95.1921 121.909 94.0078 118.588 91.7891C115.268 89.5703 112.68 86.4167 111.151 82.7271C109.623 79.0374 109.223 74.9774 110.002 71.0605C110.781 67.1436 112.704 63.5457 115.528 60.7218C118.352 57.8978 121.95 55.9747 125.867 55.1956C129.784 54.4165 133.844 54.8163 137.534 56.3446C141.223 57.8729 144.377 60.461 146.596 63.7816C148.814 67.1022 149.999 71.0062 149.999 74.9998C149.993 80.3534 147.864 85.4861 144.078 89.2716C140.293 93.0571 135.16 95.1864 129.807 95.1921ZM8.97404 146.597C12.2946 148.815 16.1986 150 20.1923 150C25.5458 149.994 30.6785 147.865 34.464 144.079C38.2495 140.294 40.3788 135.161 40.3845 129.807C40.3845 125.814 39.2002 121.91 36.9815 118.589C34.7627 115.269 31.6091 112.681 27.9195 111.152C24.2298 109.624 20.1699 109.224 16.2529 110.003C12.336 110.782 8.73812 112.705 5.91418 115.529C3.09025 118.353 1.16712 121.951 0.387997 125.868C-0.391125 129.785 0.00874897 133.845 1.53705 137.535C3.06536 141.224 5.65345 144.378 8.97404 146.597ZM74.9994 150C71.0057 150 67.1018 148.815 63.7812 146.597C60.4606 144.378 57.8725 141.224 56.3442 137.535C54.8159 133.845 54.416 129.785 55.1951 125.868C55.9742 121.951 57.8974 118.353 60.7213 115.529C63.5452 112.705 67.1432 110.782 71.0601 110.003C74.977 109.224 79.037 109.624 82.7266 111.152C86.4163 112.681 89.5699 115.269 91.7886 118.589C94.0074 121.91 95.1916 125.814 95.1916 129.807C95.1859 135.161 93.0567 140.294 89.2711 144.079C85.4856 147.865 80.3529 149.994 74.9994 150ZM118.588 146.597C121.909 148.815 125.813 150 129.807 150C135.16 149.994 140.293 147.865 144.078 144.079C147.864 140.294 149.993 135.161 149.999 129.807C149.999 125.814 148.814 121.91 146.596 118.589C144.377 115.269 141.223 112.681 137.534 111.152C133.844 109.624 129.784 109.224 125.867 110.003C121.95 110.782 118.352 112.705 115.528 115.529C112.704 118.353 110.781 121.951 110.002 125.868C109.223 129.785 109.623 133.845 111.151 137.535C112.68 141.224 115.268 144.378 118.588 146.597Z" fill="currentColor"/>
</svg>
