<svg width="151" height="150" viewBox="0 0 151 150" fill="none" xmlns="http://www.w3.org/2000/svg">
<path d="M38.25 75C38.25 79.9728 36.2746 84.7419 32.7582 88.2582C29.2419 91.7745 24.4728 93.75 19.5 93.75C14.5272 93.75 9.75806 91.7745 6.24174 88.2582C2.72545 84.7419 0.749999 79.9728 0.749999 75C0.749999 70.0272 2.72545 65.2581 6.24174 61.7417C9.75806 58.2254 14.5272 56.25 19.5 56.25C24.4728 56.25 29.2419 58.2254 32.7582 61.7417C36.2746 65.2581 38.25 70.0272 38.25 75ZM94.5 75C94.5 79.9728 92.5246 84.7419 89.0082 88.2582C85.4919 91.7746 80.7228 93.75 75.75 93.75C70.7772 93.75 66.0081 91.7746 62.4918 88.2582C58.9754 84.7419 57 79.9728 57 75C57 70.0272 58.9754 65.2581 62.4918 61.7417C66.0081 58.2254 70.7772 56.25 75.75 56.25C80.7228 56.25 85.4919 58.2254 89.0082 61.7417C92.5246 65.2581 94.5 70.0272 94.5 75ZM150.75 75C150.75 79.9728 148.775 84.7419 145.258 88.2582C141.742 91.7746 136.973 93.75 132 93.75C127.027 93.75 122.258 91.7746 118.742 88.2582C115.225 84.7419 113.25 79.9728 113.25 75C113.25 70.0272 115.225 65.2581 118.742 61.7418C122.258 58.2254 127.027 56.25 132 56.25C136.973 56.25 141.742 58.2254 145.258 61.7418C148.775 65.2581 150.75 70.0272 150.75 75Z" fill="currentColor"/>
</svg>
