<svg width="150" height="150" viewBox="0 0 150 150" fill="none" xmlns="http://www.w3.org/2000/svg">
<path d="M133.667 35.3333C133.667 37.1014 132.964 38.7971 131.714 40.0474C130.464 41.2976 128.768 42 127 42C125.232 42 123.536 41.2976 122.286 40.0474C121.036 38.7971 120.333 37.1014 120.333 35.3333V28.6667H113.667C111.899 28.6667 110.203 27.9643 108.953 26.714C107.702 25.4638 107 23.7681 107 22C107 20.2319 107.702 18.5362 108.953 17.286C110.203 16.0357 111.899 15.3333 113.667 15.3333H120.333V8.66667C120.333 6.89856 121.036 5.20286 122.286 3.95262C123.536 2.70238 125.232 2 127 2C128.768 2 130.464 2.70238 131.714 3.95262C132.964 5.20286 133.667 6.89856 133.667 8.66667V15.3333H140.333C142.101 15.3333 143.797 16.0357 145.047 17.286C146.298 18.5362 147 20.2319 147 22C147 23.7681 146.298 25.4638 145.047 26.714C143.797 27.9643 142.101 28.6667 140.333 28.6667H133.667V35.3333Z" fill="currentColor"/>
<path fill-rule="evenodd" clip-rule="evenodd" d="M94 17H39.211C31.6268 17 25.4796 23.164 25.4796 30.7689V110.262C25.4796 117.867 31.6268 124.039 39.211 124.039H118.487C126.071 124.039 132.219 117.867 132.219 110.262V56H120.722V110.262C120.722 111.507 119.718 112.504 118.486 112.504H39.2092C37.9679 112.504 36.9731 111.507 36.9731 110.262V30.769C36.9731 29.5328 37.9679 28.5268 39.2092 28.5268H94V17ZM94 41.1706H48.8854C47.474 41.1706 46.3347 42.3215 46.3347 43.7283V50.8216C46.3347 52.2368 47.474 53.3792 48.8854 53.3792H94V41.1706ZM14.6463 137.382C13.1414 136.376 12.6483 134.867 12.4952 134.245V43.7283C12.4952 42.3215 11.3559 41.1706 9.94452 41.1706H3.55072C2.14782 41.1706 1 42.3215 1 43.7283V134.927L1.08502 135.72C1.22106 136.606 2.0543 141.227 5.84636 144.987C8.49061 147.621 12.5888 150 19.1101 150H105.545C106.957 150 108.096 148.849 108.096 147.442V141.023C108.096 139.616 106.957 138.465 105.545 138.465H19.1101C17.146 138.465 15.6921 138.073 14.6463 137.382ZM88.617 87.6515C90.0199 87.6515 91.1677 88.7939 91.1677 90.2091V97.3025C91.1677 98.7092 90.0199 99.8601 88.617 99.8601H48.8854C47.474 99.8601 46.3347 98.7092 46.3347 97.3025V90.2091C46.3347 88.7939 47.474 87.6515 48.8854 87.6515H88.617ZM109.193 64.4101C110.596 64.4101 111.744 65.5525 111.744 66.9678V74.0611C111.744 75.4763 110.596 76.6187 109.193 76.6187H48.8854C47.474 76.6187 46.3347 75.4763 46.3347 74.0611V66.9678C46.3347 65.5525 47.474 64.4101 48.8854 64.4101H109.193Z" fill="currentColor"/>
</svg>
