<svg width="150" height="150" viewBox="0 0 150 150" fill="none" xmlns="http://www.w3.org/2000/svg">
<path d="M142.459 75.0217C140.47 75.0217 138.563 75.8117 137.157 77.2178C135.751 78.6239 134.961 80.531 134.961 82.5196V127.507C134.961 129.495 134.171 131.402 132.765 132.808C131.359 134.214 129.452 135.004 127.463 135.004H22.4935C20.5049 135.004 18.5978 134.214 17.1917 132.808C15.7856 131.402 14.9957 129.495 14.9957 127.507V22.537C14.9957 20.5484 15.7856 18.6413 17.1917 17.2352C18.5978 15.8291 20.5049 15.0391 22.4935 15.0391H67.4804C69.469 15.0391 71.3761 14.2492 72.7822 12.8431C74.1883 11.4369 74.9783 9.52985 74.9783 7.5413C74.9783 5.55275 74.1883 3.64565 72.7822 2.23954C71.3761 0.833422 69.469 0.0434749 67.4804 0.0434749H22.4935C16.5278 0.0434749 10.8065 2.41332 6.58819 6.63166C2.36984 10.85 0 16.5713 0 22.537V127.507C0 133.472 2.36984 139.193 6.58819 143.412C10.8065 147.63 16.5278 150 22.4935 150H127.463C133.429 150 139.15 147.63 143.368 143.412C147.587 139.193 149.957 133.472 149.957 127.507V82.5196C149.957 80.531 149.167 78.6239 147.76 77.2178C146.354 75.8117 144.447 75.0217 142.459 75.0217ZM29.9913 80.7201V112.511C29.9913 114.499 30.7813 116.407 32.1874 117.813C33.5935 119.219 35.5006 120.009 37.4891 120.009H69.2799C70.2667 120.014 71.2449 119.825 72.1584 119.452C73.0719 119.079 73.9028 118.529 74.6034 117.834L126.488 65.8744L147.782 45.0304C148.485 44.3334 149.043 43.5041 149.423 42.5905C149.804 41.6768 150 40.6968 150 39.707C150 38.7172 149.804 37.7372 149.423 36.8235C149.043 35.9098 148.485 35.0805 147.782 34.3835L115.991 2.21784C115.294 1.51508 114.465 0.957289 113.551 0.576635C112.638 0.19598 111.658 0 110.668 0C109.678 0 108.698 0.19598 107.784 0.576635C106.871 0.957289 106.041 1.51508 105.344 2.21784L84.2006 23.4367L32.1657 75.3966C31.4708 76.0972 30.921 76.9281 30.5479 77.8416C30.1747 78.7551 29.9856 79.7333 29.9913 80.7201ZM110.668 18.1132L131.887 39.3321L121.24 49.979L100.021 28.7601L110.668 18.1132ZM44.987 83.7942L89.4491 39.3321L110.668 60.5509L66.2058 105.013H44.987V83.7942Z" fill="currentColor"/>
</svg>
