<svg width="150" height="150" viewBox="0 0 150 150" fill="none" xmlns="http://www.w3.org/2000/svg">
<path d="M149.096 139.14L10.0268 0L1 8.95628L34.2863 42.2426C30.4664 49.3557 28.4561 57.2998 28.433 65.3738V107.687L14.3286 121.791V128.843H120.887L140.14 148.096L149.096 139.14ZM42.5374 114.739V65.3738C42.5374 61.0719 43.3131 56.8406 44.9351 52.8914L106.783 114.739H42.5374ZM63.6939 135.896H91.9027C91.9027 139.636 90.4167 143.224 87.7716 145.869C85.1265 148.514 81.539 150 77.7983 150C74.0576 150 70.4701 148.514 67.825 145.869C65.1799 143.224 63.6939 139.636 63.6939 135.896ZM51.6347 23.6953C55.3724 21.2976 59.4626 19.5346 63.6939 18.0536V16.0085C63.6939 12.2677 65.1799 8.68025 67.825 6.03516C70.4701 3.39008 74.0576 1.90409 77.7983 1.90409C81.539 1.90409 85.1265 3.39008 87.7716 6.03516C90.4167 8.68025 91.9027 12.2677 91.9027 16.0085V18.0536C112.848 24.2595 127.164 43.512 127.164 65.3738V99.2243L113.059 85.1199V65.3738C113.059 56.022 109.344 47.0532 102.732 40.4405C96.1188 33.8278 87.1501 30.1128 77.7983 30.1128C72.2976 30.1128 66.8674 31.5233 62.0014 34.0621L51.6347 23.6953Z" fill="currentColor"/>
</svg>
