<svg width="24" height="24" viewBox="0 0 24 24" fill="none" xmlns="http://www.w3.org/2000/svg">
<path d="M23.8985 10.1817L19.7707 3.35288C19.588 3.05067 19.2096 2.93091 18.8862 3.07285L16.3634 4.18116L12.4732 3.02897C12.2926 2.97544 12.0981 2.99667 11.9332 3.08785L7.45373 5.56528L4.87261 3.9128C4.7129 3.81057 4.51865 3.7771 4.33401 3.82017C4.14933 3.86316 3.98986 3.97894 3.89175 4.14122L0.101482 10.4116C-0.096002 10.7384 0.00327929 11.163 0.325123 11.3682L1.92 12.3853L1.59764 12.8154C0.946639 13.6841 1.12373 14.9205 1.99242 15.5715C2.33672 15.8295 2.74626 15.9652 3.16894 15.9652C3.20672 15.9652 3.24464 15.9633 3.28261 15.9611C3.38395 16.3969 3.63281 16.8008 4.01803 17.0895C4.37137 17.3543 4.78542 17.482 5.19623 17.482C5.23326 17.482 5.27025 17.481 5.30719 17.4789C5.41162 17.9302 5.66864 18.3264 6.04364 18.6075C6.38794 18.8655 6.79748 19.0011 7.22015 19.0011C7.25794 19.0011 7.29586 18.9992 7.33383 18.997C7.43517 19.4328 7.68403 19.8367 8.06925 20.1254C8.42259 20.3902 8.83664 20.5179 9.24745 20.5179C9.84675 20.5179 10.4391 20.2459 10.8253 19.7306L10.8888 19.6458L13.7007 21.6473C14.0629 21.9051 14.4813 22.029 14.8962 22.029C15.5389 22.029 16.1729 21.7314 16.5749 21.173C16.749 20.931 16.8632 20.6642 16.9199 20.3902C17.6858 20.5366 18.5042 20.2422 18.9875 19.5709C19.2465 19.2111 19.3714 18.7942 19.3718 18.3805C19.926 18.3139 20.4516 18.0254 20.8014 17.5394C21.0147 17.2431 21.1371 16.9078 21.1738 16.5677C21.8331 16.5826 22.49 16.285 22.9023 15.7122C23.2235 15.2661 23.3509 14.7221 23.2612 14.1805C23.1713 13.638 22.8745 13.1631 22.4254 12.8434L21.7432 12.3578L23.6722 11.14C23.996 10.9355 24.0967 10.5094 23.8985 10.1817ZM3.6232 14.3333C3.53311 14.4536 3.40158 14.5315 3.25289 14.5529C3.10397 14.5741 2.95603 14.5363 2.8358 14.4462C2.58755 14.2602 2.53697 13.907 2.72297 13.6587L3.64495 12.4284C3.83095 12.1802 4.1842 12.1296 4.4324 12.3156C4.68061 12.5016 4.73123 12.8548 4.54523 13.103L3.6232 14.3333ZM5.64881 15.8513C5.46276 16.0995 5.10951 16.1501 4.86136 15.9641C4.61315 15.7781 4.56258 15.4248 4.74853 15.1767L5.67056 13.9463C5.67065 13.9462 5.67075 13.9461 5.67084 13.946L6.31945 13.0805C6.40955 12.9602 6.54108 12.8823 6.68976 12.861C6.83864 12.8397 6.98662 12.8775 7.10686 12.9676C7.35506 13.1536 7.40569 13.5069 7.21969 13.7551L5.64881 15.8513ZM7.67442 17.3692C7.58433 17.4894 7.45275 17.5674 7.30406 17.5887C7.15542 17.61 7.0072 17.5722 6.88697 17.4821C6.76673 17.392 6.68878 17.2604 6.66745 17.1117C6.64612 16.963 6.68405 16.8149 6.77414 16.6946L8.34501 14.5984C8.34506 14.5984 8.34506 14.5983 8.34511 14.5983L8.63128 14.2164C8.72137 14.0962 8.85295 14.0183 9.00164 13.9969C9.02869 13.993 9.05573 13.9911 9.08259 13.9911C9.20334 13.9911 9.32034 14.0299 9.41873 14.1036C9.53897 14.1937 9.61692 14.3252 9.63825 14.4739C9.65958 14.6226 9.62165 14.7708 9.53156 14.891L7.67442 17.3692ZM10.6219 17.6569L9.69994 18.8873C9.51394 19.1354 9.16069 19.186 8.91248 19C8.66433 18.814 8.6137 18.4608 8.7997 18.2126L9.72169 16.9823C9.81178 16.8621 9.94331 16.7841 10.092 16.7628C10.2407 16.7415 10.3889 16.7794 10.5091 16.8695C10.7573 17.0555 10.8079 17.4087 10.6219 17.6569ZM21.8737 14.4104C21.9019 14.58 21.8618 14.7506 21.7609 14.8906C21.5501 15.1836 21.1385 15.2509 20.8435 15.0409L20.3344 14.6785C20.3343 14.6784 20.3342 14.6784 20.3341 14.6783L20.334 14.6783L17.4956 12.6603C17.1791 12.4353 16.7402 12.5095 16.5151 12.826C16.2901 13.1425 16.3643 13.5815 16.6808 13.8065L19.5138 15.8206C19.8006 16.029 19.8662 16.4314 19.6599 16.7179C19.4491 17.0107 19.0376 17.0781 18.7425 16.8681L18.5199 16.7097C18.5199 16.7096 18.5198 16.7096 18.5198 16.7096C18.5197 16.7095 18.5197 16.7095 18.5196 16.7094L16.3277 15.1511C16.0112 14.9261 15.5723 15.0002 15.3472 15.3168C15.1222 15.6333 15.1964 16.0723 15.5129 16.2973L17.6996 17.8519C17.9866 18.0602 18.0523 18.4628 17.846 18.7494C17.6351 19.0422 17.2236 19.1096 16.9285 18.8996L16.1488 18.3446C16.1487 18.3445 16.1486 18.3444 16.1484 18.3443L14.9681 17.5052C14.6516 17.2803 14.2126 17.3544 13.9876 17.6709C13.7626 17.9874 13.8368 18.4264 14.1533 18.6514L15.3131 19.4759C15.5798 19.6912 15.6332 20.0739 15.4334 20.3515C15.2226 20.6443 14.811 20.7118 14.5159 20.5018L11.7322 18.5203L11.7471 18.5004C12.3981 17.6317 12.2209 16.3953 11.3522 15.7443C11.1882 15.6214 11.0111 15.5281 10.8273 15.4633C11.0173 15.1003 11.0893 14.6883 11.03 14.2748C10.9554 13.7542 10.6826 13.2938 10.2618 12.9785C9.84094 12.6631 9.32255 12.5305 8.80195 12.6051C8.7269 12.6158 8.65331 12.6312 8.58108 12.65C8.45011 12.3396 8.23842 12.0586 7.94995 11.8425C7.52911 11.5271 7.01067 11.3944 6.49012 11.4691C6.22964 11.5064 5.98425 11.5934 5.76455 11.7237C5.63939 11.5226 5.47612 11.3408 5.2755 11.1904C4.52034 10.6245 3.48755 10.6847 2.8028 11.2807L1.65984 10.5518L4.72176 5.4863L6.05419 6.33933L5.17275 6.82683C4.96364 6.94252 4.82756 7.15646 4.81153 7.39486C4.77783 7.89497 4.87978 8.39644 5.10637 8.84508C5.80551 10.2293 7.50591 10.7904 8.89659 10.0957L12.1606 8.46563L13.8155 8.48996L20.0764 12.8978C20.0764 12.8978 20.0765 12.8979 20.0766 12.8979L21.6096 13.9892C21.7517 14.0902 21.8455 14.2398 21.8737 14.4104ZM20.5026 11.478L14.4479 7.2151C14.3323 7.13372 14.1948 7.08905 14.0534 7.08699L12.0103 7.05694C12.0068 7.05689 12.0034 7.05689 11.9999 7.05689C11.8909 7.05689 11.7833 7.08225 11.6857 7.131L8.26851 8.83763C7.56825 9.18727 6.71287 8.9063 6.36173 8.2111C6.30309 8.09494 6.26114 7.9718 6.23676 7.84542L12.356 4.4611L16.2107 5.60278C16.37 5.64999 16.541 5.63921 16.6932 5.57236L18.8865 4.60885L22.3382 10.3192L20.5026 11.478Z" fill="black"/>
</svg>
