<svg width="24" height="24" viewBox="0 0 24 24" fill="none" xmlns="http://www.w3.org/2000/svg">
<path d="M22.0059 8.77665L5.20684 0.377102C4.54387 0.0471311 3.79526 -0.0703408 3.06308 0.0407025C2.3309 0.151746 1.65079 0.485901 1.11546 0.997607C0.580138 1.50931 0.215657 2.17367 0.0717124 2.9001C-0.0722318 3.62652 0.011366 4.37967 0.311108 5.05685L3.19095 11.5005C3.2563 11.6563 3.28995 11.8235 3.28995 11.9925C3.28995 12.1614 3.2563 12.3287 3.19095 12.4844L0.311108 18.9281C0.0671615 19.4761 -0.0359662 20.0764 0.0110969 20.6744C0.05816 21.2725 0.253922 21.8492 0.580592 22.3524C0.907262 22.8555 1.35448 23.269 1.88161 23.5553C2.40874 23.8416 2.99906 23.9917 3.59893 23.9918C4.16078 23.9862 4.71426 23.855 5.21884 23.6078L22.0179 15.2083C22.6138 14.9085 23.1147 14.4491 23.4647 13.8813C23.8147 13.3134 24 12.6595 24 11.9925C24 11.3254 23.8147 10.6715 23.4647 10.1037C23.1147 9.53584 22.6138 9.07641 22.0179 8.77665H22.0059ZM20.938 13.0604L4.1389 21.46C3.91831 21.5659 3.6706 21.6018 3.429 21.563C3.1874 21.5241 2.96345 21.4123 2.78719 21.2426C2.61092 21.0729 2.49077 20.8533 2.44283 20.6133C2.39489 20.3734 2.42147 20.1245 2.51899 19.9L5.38683 13.4564C5.42396 13.3703 5.45601 13.2822 5.48283 13.1924H13.7504C14.0686 13.1924 14.3738 13.066 14.5989 12.841C14.8239 12.6159 14.9503 12.3107 14.9503 11.9925C14.9503 11.6742 14.8239 11.369 14.5989 11.144C14.3738 10.919 14.0686 10.7925 13.7504 10.7925H5.48283C5.45601 10.7027 5.42396 10.6146 5.38683 10.5286L2.51899 4.0849C2.42147 3.86047 2.39489 3.61159 2.44283 3.37162C2.49077 3.13166 2.61092 2.91209 2.78719 2.74235C2.96345 2.57261 3.1874 2.46083 3.429 2.42197C3.6706 2.38312 3.91831 2.41907 4.1389 2.52499L20.938 10.9245C21.1345 11.0252 21.2995 11.1782 21.4147 11.3666C21.5299 11.5551 21.5908 11.7716 21.5908 11.9925C21.5908 12.2133 21.5299 12.4299 21.4147 12.6183C21.2995 12.8067 21.1345 12.9597 20.938 13.0604V13.0604Z" fill="black"/>
</svg>
