<svg width="150" height="150" viewBox="0 0 150 150" fill="none" xmlns="http://www.w3.org/2000/svg">
<path d="M142.5 30C140.511 30 138.603 30.7902 137.197 32.1967C135.79 33.6032 135 35.5109 135 37.5V112.5C135 118.467 132.629 124.19 128.41 128.41C124.19 132.629 118.467 135 112.5 135H37.5C35.5109 135 33.6032 135.79 32.1967 137.197C30.7902 138.603 30 140.511 30 142.5C30 144.489 30.7902 146.397 32.1967 147.803C33.6032 149.21 35.5109 150 37.5 150H112.5C122.446 150 131.984 146.049 139.017 139.017C146.049 131.984 150 122.446 150 112.5V37.5C150 35.5109 149.21 33.6032 147.803 32.1967C146.397 30.7902 144.489 30 142.5 30ZM120 97.5V22.5C120 16.5326 117.629 10.8097 113.41 6.5901C109.19 2.37053 103.467 0 97.5 0H22.5C16.5326 0 10.8097 2.37053 6.5901 6.5901C2.37053 10.8097 0 16.5326 0 22.5V97.5C0 103.467 2.37053 109.19 6.5901 113.41C10.8097 117.629 16.5326 120 22.5 120H97.5C103.467 120 109.19 117.629 113.41 113.41C117.629 109.19 120 103.467 120 97.5V97.5ZM60 15H75V51.45L72.3 49.2C70.9523 48.0775 69.2539 47.4628 67.5 47.4628C65.7461 47.4628 64.0477 48.0775 62.7 49.2L60 51.45V15ZM15 97.5V22.5C15 20.5109 15.7902 18.6032 17.1967 17.1967C18.6032 15.7902 20.5109 15 22.5 15H45V67.5C44.9999 68.9337 45.4108 70.3375 46.1839 71.5449C46.957 72.7523 48.0601 73.7128 49.3623 74.3126C50.6645 74.9124 52.1114 75.1264 53.5315 74.9292C54.9516 74.732 56.2855 74.1319 57.375 73.2L67.5 64.725L77.625 73.2C78.9836 74.3618 80.7124 75.0001 82.5 75C83.5851 74.9923 84.6571 74.7626 85.65 74.325C86.9519 73.7225 88.0536 72.7593 88.8246 71.5496C89.5956 70.3399 90.0035 68.9345 90 67.5V15H97.5C99.4891 15 101.397 15.7902 102.803 17.1967C104.21 18.6032 105 20.5109 105 22.5V97.5C105 99.4891 104.21 101.397 102.803 102.803C101.397 104.21 99.4891 105 97.5 105H22.5C20.5109 105 18.6032 104.21 17.1967 102.803C15.7902 101.397 15 99.4891 15 97.5Z" fill="rgb(110,118,142)"/>
</svg>
