<svg width="24" height="24" viewBox="0 0 24 24" fill="none" xmlns="http://www.w3.org/2000/svg">
<path d="M8.4 9.6H9.6C9.91826 9.6 10.2235 9.47357 10.4485 9.24853C10.6736 9.02348 10.8 8.71826 10.8 8.4C10.8 8.08174 10.6736 7.77652 10.4485 7.55147C10.2235 7.32643 9.91826 7.2 9.6 7.2H8.4C8.08174 7.2 7.77652 7.32643 7.55147 7.55147C7.32643 7.77652 7.2 8.08174 7.2 8.4C7.2 8.71826 7.32643 9.02348 7.55147 9.24853C7.77652 9.47357 8.08174 9.6 8.4 9.6V9.6ZM8.4 12C8.08174 12 7.77652 12.1264 7.55147 12.3515C7.32643 12.5765 7.2 12.8817 7.2 13.2C7.2 13.5183 7.32643 13.8235 7.55147 14.0485C7.77652 14.2736 8.08174 14.4 8.4 14.4H15.6C15.9183 14.4 16.2235 14.2736 16.4485 14.0485C16.6736 13.8235 16.8 13.5183 16.8 13.2C16.8 12.8817 16.6736 12.5765 16.4485 12.3515C16.2235 12.1264 15.9183 12 15.6 12H8.4ZM21.6 8.328C21.5875 8.21776 21.5634 8.10916 21.528 8.004V7.896C21.4703 7.77262 21.3933 7.6592 21.3 7.56L14.1 0.36C14.0008 0.266659 13.8874 0.189697 13.764 0.132C13.7282 0.126912 13.6918 0.126912 13.656 0.132C13.5341 0.0620895 13.3995 0.017213 13.26 0H6C5.04522 0 4.12955 0.379285 3.45442 1.05442C2.77928 1.72955 2.4 2.64522 2.4 3.6V20.4C2.4 21.3548 2.77928 22.2705 3.45442 22.9456C4.12955 23.6207 5.04522 24 6 24H18C18.9548 24 19.8705 23.6207 20.5456 22.9456C21.2207 22.2705 21.6 21.3548 21.6 20.4V8.4V8.328ZM14.4 4.092L17.508 7.2H15.6C15.2817 7.2 14.9765 7.07357 14.7515 6.84853C14.5264 6.62348 14.4 6.31826 14.4 6V4.092ZM19.2 20.4C19.2 20.7183 19.0736 21.0235 18.8485 21.2485C18.6235 21.4736 18.3183 21.6 18 21.6H6C5.68174 21.6 5.37652 21.4736 5.15147 21.2485C4.92643 21.0235 4.8 20.7183 4.8 20.4V3.6C4.8 3.28174 4.92643 2.97652 5.15147 2.75147C5.37652 2.52643 5.68174 2.4 6 2.4H12V6C12 6.95478 12.3793 7.87045 13.0544 8.54559C13.7295 9.22072 14.6452 9.6 15.6 9.6H19.2V20.4ZM15.6 16.8H8.4C8.08174 16.8 7.77652 16.9264 7.55147 17.1515C7.32643 17.3765 7.2 17.6817 7.2 18C7.2 18.3183 7.32643 18.6235 7.55147 18.8485C7.77652 19.0736 8.08174 19.2 8.4 19.2H15.6C15.9183 19.2 16.2235 19.0736 16.4485 18.8485C16.6736 18.6235 16.8 18.3183 16.8 18C16.8 17.6817 16.6736 17.3765 16.4485 17.1515C16.2235 16.9264 15.9183 16.8 15.6 16.8Z" fill="black"/>
</svg>
