<svg width="150" height="150" viewBox="0 0 150 150" fill="none" xmlns="http://www.w3.org/2000/svg">
<path d="M127.5 0H22.5C16.5345 0.00595661 10.815 2.3784 6.59668 6.59668C2.3784 10.815 0.00595661 16.5345 0 22.5V127.5C0.00595661 133.466 2.3784 139.185 6.59668 143.403C10.815 147.622 16.5345 149.994 22.5 150H127.5C133.466 149.994 139.185 147.622 143.403 143.403C147.622 139.185 149.994 133.466 150 127.5V22.5C149.994 16.5345 147.622 10.815 143.403 6.59668C139.185 2.3784 133.466 0.00595661 127.5 0ZM22.5 15H127.5C129.489 15.002 131.395 15.7928 132.801 17.1989C134.207 18.605 134.998 20.5115 135 22.5V82.5H116.505C114.036 82.4976 111.604 83.1058 109.427 84.2704C107.249 85.435 105.394 87.1199 104.025 89.175L93.48 105H56.505L45.96 89.175C44.5912 87.1199 42.7355 85.435 40.5582 84.2704C38.3808 83.1058 35.9493 82.4976 33.48 82.5H15V22.5C15.002 20.5115 15.7928 18.605 17.1989 17.1989C18.605 15.7928 20.5115 15.002 22.5 15ZM127.5 135H22.5C20.5115 134.998 18.605 134.207 17.1989 132.801C15.7928 131.395 15.002 129.489 15 127.5V97.5H33.48L44.025 113.325C45.3938 115.38 47.2495 117.065 49.4268 118.23C51.6042 119.394 54.0357 120.002 56.505 120H93.48C95.9493 120.002 98.3808 119.394 100.558 118.23C102.736 117.065 104.591 115.38 105.96 113.325L116.505 97.5H134.993V127.5C134.991 129.489 134.2 131.395 132.794 132.801C131.388 134.207 129.481 134.998 127.493 135H127.5Z" fill="rgb(110,118,142)"/>
</svg>
