<svg width="24" height="24" viewBox="0 0 24 24" fill="none" xmlns="http://www.w3.org/2000/svg">
<path fill-rule="evenodd" clip-rule="evenodd" d="M9.99134 23.9739C9.8131 23.936 9.64586 23.858 9.50238 23.7457C9.21076 23.5189 9.04035 23.1696 9.04035 22.8V21.5999H4.24007C3.92179 21.5999 3.61655 21.4735 3.39149 21.2484C3.16644 21.0234 3.04 20.7181 3.04 20.3999V3.59888C3.04 3.2806 3.16644 2.97536 3.39149 2.75031C3.61655 2.52525 3.92179 2.39881 4.24007 2.39881H9.04035V1.19874C9.0411 1.01668 9.08313 0.837168 9.16329 0.673706C9.24345 0.510243 9.35965 0.367094 9.50313 0.255033C9.64662 0.142972 9.81365 0.0649194 9.99166 0.0267504C10.1697 -0.0114186 10.354 -0.00870957 10.5308 0.0346739L20.1314 2.43482C20.3911 2.4996 20.6218 2.64936 20.7866 2.86029C20.9514 3.07121 21.041 3.33119 21.0411 3.59888V20.3999C21.0412 20.6676 20.9517 20.9277 20.7868 21.1387C20.622 21.3496 20.3912 21.4993 20.1314 21.5639L10.5308 23.9641C10.3541 24.0084 10.1696 24.0117 9.99134 23.9739ZM18.6409 4.53614L11.4405 2.73603V21.2627L18.6409 19.4626V4.53614ZM5.44014 4.79895V19.1998H9.04035V4.79895H5.44014ZM15.0407 12.2251C15.0407 12.7759 14.6663 13.2559 14.1311 13.3903C13.9542 13.4345 13.7696 13.4377 13.5913 13.3998C13.413 13.3619 13.2456 13.2839 13.102 13.1717C12.9583 13.0595 12.8421 12.9161 12.7621 12.7523C12.6822 12.5884 12.6406 12.4086 12.6406 12.2263V11.7738C12.6404 11.4556 12.7667 11.1503 12.9916 10.9251C13.2166 10.6999 13.5218 10.5733 13.84 10.5732C14.1583 10.573 14.4636 10.6993 14.6888 10.9242C14.914 11.1492 15.0405 11.4544 15.0407 11.7726V12.2251Z" fill="black"/>
</svg>
