<svg width="150" height="150" viewBox="0 0 150 150" fill="none" xmlns="http://www.w3.org/2000/svg">
<path d="M75 82.5C72.7166 82.4733 70.4799 83.1468 68.5908 84.4298C66.7018 85.7128 65.2511 87.5437 64.4341 89.676C63.6171 91.8084 63.473 94.1399 64.0211 96.3567C64.5693 98.5735 65.7834 100.569 67.5 102.075V112.5C67.5 114.489 68.2902 116.397 69.6967 117.803C71.1032 119.21 73.0109 120 75 120C76.9891 120 78.8968 119.21 80.3033 117.803C81.7098 116.397 82.5 114.489 82.5 112.5V102.075C84.2166 100.569 85.4307 98.5735 85.9789 96.3567C86.527 94.1399 86.3829 91.8084 85.5659 89.676C84.7489 87.5437 83.2982 85.7128 81.4092 84.4298C79.5201 83.1468 77.2834 82.4733 75 82.5ZM112.5 52.5V37.5C112.5 27.5544 108.549 18.0161 101.517 10.9835C94.4839 3.95088 84.9456 0 75 0C65.0544 0 55.5161 3.95088 48.4835 10.9835C41.4509 18.0161 37.5 27.5544 37.5 37.5V52.5C31.5326 52.5 25.8097 54.8705 21.5901 59.0901C17.3705 63.3097 15 69.0326 15 75V127.5C15 133.467 17.3705 139.19 21.5901 143.41C25.8097 147.629 31.5326 150 37.5 150H112.5C118.467 150 124.19 147.629 128.41 143.41C132.629 139.19 135 133.467 135 127.5V75C135 69.0326 132.629 63.3097 128.41 59.0901C124.19 54.8705 118.467 52.5 112.5 52.5ZM52.5 37.5C52.5 31.5326 54.8705 25.8097 59.0901 21.5901C63.3097 17.3705 69.0326 15 75 15C80.9674 15 86.6903 17.3705 90.9099 21.5901C95.1295 25.8097 97.5 31.5326 97.5 37.5V52.5H52.5V37.5ZM120 127.5C120 129.489 119.21 131.397 117.803 132.803C116.397 134.21 114.489 135 112.5 135H37.5C35.5109 135 33.6032 134.21 32.1967 132.803C30.7902 131.397 30 129.489 30 127.5V75C30 73.0109 30.7902 71.1032 32.1967 69.6967C33.6032 68.2902 35.5109 67.5 37.5 67.5H112.5C114.489 67.5 116.397 68.2902 117.803 69.6967C119.21 71.1032 120 73.0109 120 75V127.5Z" fill="rgb(110,118,142)"/>
</svg>
