<svg width="150" height="150" viewBox="0 0 150 150" fill="none" xmlns="http://www.w3.org/2000/svg">
<path d="M131.408 82.4986C129.752 82.4986 128.021 81.9717 126.365 81.5953C123.011 80.8563 119.716 79.8753 116.505 78.6598C113.013 77.3894 109.174 77.4554 105.728 78.845C102.282 80.2346 99.4715 82.8496 97.8375 86.1868L96.1815 89.574C88.8503 85.4956 82.1134 80.4304 76.1597 74.5199C70.2492 68.5662 65.1839 61.8293 61.1056 54.498L64.267 52.3905C67.6042 50.7565 70.2192 47.946 71.6088 44.4998C72.9984 41.0537 73.0643 37.2153 71.794 33.7234C70.5989 30.5051 69.6182 27.2111 68.8585 23.863C68.4821 22.2071 68.181 20.4759 67.9552 18.7447C67.0412 13.4428 64.2641 8.64147 60.1243 5.20536C55.9844 1.76926 50.7537 -0.075826 45.3741 0.00238835H22.7931C19.5492 -0.02807 16.3368 0.640781 13.3746 1.96341C10.4124 3.28603 7.76997 5.23138 5.62718 7.66702C3.48439 10.1027 1.89155 12.9714 0.9571 16.078C0.0226465 19.1845 -0.231482 22.4559 0.212015 25.6695C4.22195 57.2031 18.6233 86.502 41.1413 108.938C63.6594 131.374 93.0105 145.669 124.558 149.564H127.419C132.969 149.572 138.328 147.536 142.473 143.844C144.854 141.714 146.756 139.103 148.054 136.184C149.351 133.264 150.015 130.103 150 126.908V104.327C149.908 99.0985 148.004 94.0642 144.613 90.0833C141.222 86.1023 136.555 83.4216 131.408 82.4986ZM135.172 127.661C135.17 128.729 134.941 129.786 134.5 130.759C134.059 131.732 133.415 132.601 132.612 133.306C131.774 134.036 130.791 134.581 129.727 134.905C128.663 135.23 127.543 135.326 126.44 135.188C98.2507 131.573 72.0667 118.677 52.0184 98.5333C31.97 78.3895 19.1983 52.1446 15.7177 23.9383C15.5979 22.8357 15.7029 21.7203 16.0263 20.6595C16.3497 19.5986 16.8849 18.6144 17.5994 17.7662C18.3048 16.9633 19.173 16.3198 20.1464 15.8785C21.1198 15.4372 22.176 15.2083 23.2447 15.207H45.8258C47.5761 15.168 49.2854 15.7405 50.6592 16.8258C52.033 17.9111 52.9855 19.4414 53.3528 21.1533C53.6539 23.2107 54.0302 25.243 54.4818 27.2502C55.3514 31.218 56.5086 35.1173 57.9443 38.9171L47.4064 43.8097C46.5054 44.223 45.695 44.8103 45.0216 45.5378C44.3482 46.2653 43.8251 47.1186 43.4824 48.0488C43.1397 48.979 42.9841 49.9677 43.0246 50.9582C43.065 51.9487 43.3008 52.9215 43.7182 53.8206C54.5511 77.0246 73.2034 95.6769 96.4074 106.51C98.2399 107.263 100.295 107.263 102.128 106.51C103.067 106.174 103.929 105.655 104.666 104.983C105.402 104.311 105.998 103.5 106.418 102.596L111.085 92.0579C114.976 93.4494 118.948 94.6057 122.978 95.5203C124.985 95.9719 127.017 96.3483 129.075 96.6494C130.786 97.0166 132.317 97.9691 133.402 99.3429C134.487 100.717 135.06 102.426 135.021 104.176L135.172 127.661Z" fill="black"/>
</svg>
