<svg width="151" height="150" viewBox="0 0 151 150" fill="none" xmlns="http://www.w3.org/2000/svg">
<path d="M38.3947 60C36.9114 60 35.4613 60.4399 34.2279 61.264C32.9946 62.0881 32.0333 63.2594 31.4656 64.6299C30.898 66.0003 30.7494 67.5083 31.0388 68.9632C31.3282 70.418 32.0425 71.7544 33.0914 72.8033C34.1403 73.8522 35.4767 74.5665 36.9315 74.8559C38.3864 75.1453 39.8944 74.9968 41.2648 74.4291C42.6353 73.8614 43.8066 72.9001 44.6307 71.6668C45.4548 70.4334 45.8947 68.9834 45.8947 67.5C45.8947 65.5109 45.1045 63.6032 43.698 62.1967C42.2915 60.7902 40.3838 60 38.3947 60ZM128.395 30H120.895V7.5C120.895 5.51088 120.105 3.60322 118.698 2.1967C117.291 0.790176 115.384 0 113.395 0H38.3947C36.4056 0 34.4979 0.790176 33.0914 2.1967C31.6849 3.60322 30.8947 5.51088 30.8947 7.5V30H23.3947C17.4273 30 11.7044 32.3705 7.48481 36.5901C3.26524 40.8097 0.894714 46.5326 0.894714 52.5V97.5C0.894714 103.467 3.26524 109.19 7.48481 113.41C11.7044 117.629 17.4273 120 23.3947 120H30.8947V142.5C30.8947 144.489 31.6849 146.397 33.0914 147.803C34.4979 149.21 36.4056 150 38.3947 150H113.395C115.384 150 117.291 149.21 118.698 147.803C120.105 146.397 120.895 144.489 120.895 142.5V120H128.395C134.362 120 140.085 117.629 144.305 113.41C148.524 109.19 150.895 103.467 150.895 97.5V52.5C150.895 46.5326 148.524 40.8097 144.305 36.5901C140.085 32.3705 134.362 30 128.395 30ZM45.8947 15H105.895V30H45.8947V15ZM105.895 135H45.8947V105H105.895V135ZM135.895 97.5C135.895 99.4891 135.105 101.397 133.698 102.803C132.292 104.21 130.384 105 128.395 105H120.895V97.5C120.895 95.5109 120.105 93.6032 118.698 92.1967C117.291 90.7902 115.384 90 113.395 90H38.3947C36.4056 90 34.4979 90.7902 33.0914 92.1967C31.6849 93.6032 30.8947 95.5109 30.8947 97.5V105H23.3947C21.4056 105 19.4979 104.21 18.0914 102.803C16.6849 101.397 15.8947 99.4891 15.8947 97.5V52.5C15.8947 50.5109 16.6849 48.6032 18.0914 47.1967C19.4979 45.7902 21.4056 45 23.3947 45H128.395C130.384 45 132.292 45.7902 133.698 47.1967C135.105 48.6032 135.895 50.5109 135.895 52.5V97.5Z" fill="currentColor"/>
</svg>
