<svg width="150" height="150" viewBox="0 0 150 150" fill="none" xmlns="http://www.w3.org/2000/svg">
<g clip-path="url(#clip0)">
<path d="M54.7438 0C83.6985 0 107.235 23.8749 107.235 52.9989C107.235 65.3597 103.002 76.5352 96.0593 85.6788L145.841 136.138C148.72 139.186 148.72 143.927 145.841 146.805C144.317 148.329 142.455 149.007 140.592 149.007C138.56 149.007 136.697 148.329 135.174 146.805L85.3918 96.3463C76.7561 102.611 66.2579 106.167 54.9131 106.167C25.9584 106.167 2.42216 82.2923 2.42216 53.1683C2.42216 24.0442 25.7891 0 54.7438 0ZM54.7438 92.7905C76.2482 92.7905 93.6887 75.0113 93.6887 53.1683C93.6887 31.3253 76.2482 13.5461 54.7438 13.5461C33.2394 13.5461 15.7989 31.3253 15.7989 53.1683C15.7989 75.0113 33.2394 92.7905 54.7438 92.7905Z" fill="currentColor"/>
</g>
<defs>
<clipPath id="clip0">
<rect width="150" height="150" fill="white"/>
</clipPath>
</defs>
</svg>
