<svg width="150" height="150" viewBox="0 0 150 150" fill="none" xmlns="http://www.w3.org/2000/svg">
<path d="M137.537 54.854L32.5428 2.35689C28.3992 0.294569 23.7204 -0.43963 19.1442 0.254391C14.5681 0.948412 10.3174 3.03688 6.97164 6.23505C3.62586 9.43322 1.34785 13.5854 0.448203 18.1256C-0.451449 22.6658 0.0710376 27.3729 1.94443 31.6053L19.9434 71.8781C20.3518 72.8518 20.5622 73.8971 20.5622 74.9529C20.5622 76.0088 20.3518 77.0541 19.9434 78.0278L1.94443 118.301C0.419759 121.726 -0.224789 125.478 0.0693558 129.215C0.3635 132.953 1.58701 136.558 3.6287 139.702C5.67039 142.847 8.46551 145.431 11.7601 147.221C15.0546 149.01 18.7441 149.948 22.4933 149.949C26.0049 149.914 29.4641 149.094 32.6178 147.549L137.612 95.0519C141.336 93.1784 144.467 90.3069 146.654 86.7579C148.842 83.2089 150 79.1219 150 74.9529C150 70.784 148.842 66.697 146.654 63.148C144.467 59.599 141.336 56.7275 137.612 54.854H137.537ZM130.862 81.6276L25.8681 134.125C24.4894 134.787 22.9413 135.011 21.4313 134.769C19.9213 134.526 18.5216 133.827 17.4199 132.766C16.3183 131.705 15.5673 130.333 15.2677 128.833C14.9681 127.333 15.1342 125.778 15.7437 124.375L33.6677 84.1025C33.8997 83.5647 34.1001 83.0138 34.2677 82.4525H85.9399C87.9289 82.4525 89.8364 81.6624 91.2429 80.256C92.6493 78.8495 93.4394 76.942 93.4394 74.9529C93.4394 72.9639 92.6493 71.0564 91.2429 69.6499C89.8364 68.2435 87.9289 67.4534 85.9399 67.4534H34.2677C34.1001 66.8921 33.8997 66.3412 33.6677 65.8034L15.7437 25.5306C15.1342 24.1279 14.9681 22.5724 15.2677 21.0726C15.5673 19.5729 16.3183 18.2006 17.4199 17.1397C18.5216 16.0788 19.9213 15.3802 21.4313 15.1373C22.9413 14.8945 24.4894 15.1192 25.8681 15.7812L130.862 68.2783C132.091 68.9077 133.122 69.8638 133.842 71.0415C134.562 72.2192 134.942 73.5727 134.942 74.9529C134.942 76.3332 134.562 77.6867 133.842 78.8644C133.122 80.0421 132.091 80.9982 130.862 81.6276Z" fill="currentColor"/>
</svg>
