<svg width="150" height="150" viewBox="0 0 150 150" fill="none" xmlns="http://www.w3.org/2000/svg">
<path d="M97.8261 99.1478V129.287C97.8261 132.91 95.2174 135.875 91.6304 135.875H6.52174C2.93478 135.875 0 132.91 0 129.287V20.5878C0 16.9645 2.93478 14 6.52174 14H91.6304C95.2174 14 97.8261 16.9645 97.8261 20.5878V50.7272C97.8261 54.3505 94.8913 57.315 91.3043 57.315C87.7174 57.315 84.7826 54.3505 84.7826 50.7272V27.1757H13.0435V122.699H84.7826V99.1478C84.7826 95.5245 87.7174 92.56 91.3043 92.56C94.8913 92.56 97.8261 95.5245 97.8261 99.1478ZM148.043 69.9966L122.609 43.9747C120 41.3395 115.924 41.3395 113.315 43.9747C110.707 46.6098 110.707 50.7272 113.315 53.3623L127.826 68.185L48.75 68.3497C45.163 68.3497 42.2283 71.3142 42.2283 74.9375C42.2283 78.5608 45.163 81.5253 48.75 81.5253L127.826 81.3606L113.315 96.1833C110.707 98.8184 110.87 102.936 113.315 105.571C114.62 106.889 116.25 107.547 117.88 107.547C119.511 107.547 121.304 106.889 122.446 105.571L148.043 79.549C150.652 76.7492 150.652 72.6318 148.043 69.9966Z" fill="currentColor"/>
</svg>
