<svg width="150" height="150" viewBox="0 0 150 150" fill="none" xmlns="http://www.w3.org/2000/svg">
<path d="M136.307 79.9493C135.105 78.5808 134.442 76.8216 134.442 75C134.442 73.1784 135.105 71.4192 136.307 70.0507L145.906 59.2521C146.964 58.0723 147.621 56.5878 147.782 55.0115C147.944 53.4353 147.602 51.8483 146.806 50.4783L131.808 24.5319C131.02 23.1635 129.82 22.0788 128.379 21.4324C126.938 20.7861 125.33 20.6111 123.784 20.9324L109.686 23.782C107.892 24.1526 106.025 23.8539 104.436 22.9421C102.847 22.0303 101.647 20.5685 101.062 18.8326L96.4879 5.10951C95.9848 3.62005 95.0264 2.32637 93.748 1.41132C92.4696 0.496274 90.936 0.00614014 89.3639 0.0101983H59.3679C57.7327 -0.0751554 56.1144 0.377096 54.7603 1.29788C53.4062 2.21866 52.3907 3.55736 51.869 5.10951L47.6695 18.8326C47.0846 20.5685 45.8846 22.0303 44.2958 22.9421C42.7071 23.8539 40.8396 24.1526 39.0457 23.782L24.5727 20.9324C23.107 20.7252 21.6128 20.9565 20.2784 21.5971C18.9439 22.2376 17.8289 23.2587 17.0737 24.5319L2.07574 50.4783C1.25955 51.833 0.892563 53.4111 1.02725 54.9869C1.16193 56.5627 1.79139 58.0556 2.82563 59.2521L12.3493 70.0507C13.5516 71.4192 14.2146 73.1784 14.2146 75C14.2146 76.8216 13.5516 78.5808 12.3493 79.9493L2.82563 90.7479C1.79139 91.9444 1.16193 93.4373 1.02725 95.0131C0.892563 96.5889 1.25955 98.167 2.07574 99.5217L17.0737 125.468C17.8618 126.837 19.0618 127.921 20.5026 128.568C21.9434 129.214 23.5515 129.389 25.0976 129.068L39.1957 126.218C40.9896 125.847 42.8571 126.146 44.4458 127.058C46.0345 127.97 47.2346 129.431 47.8195 131.167L52.3939 144.89C52.9157 146.443 53.9311 147.781 55.2852 148.702C56.6393 149.623 58.2576 150.075 59.8929 149.99H89.8888C91.4609 149.994 92.9945 149.504 94.2729 148.589C95.5513 147.674 96.5098 146.38 97.0128 144.89L101.587 131.167C102.172 129.431 103.372 127.97 104.961 127.058C106.55 126.146 108.417 125.847 110.211 126.218L124.309 129.068C125.855 129.389 127.463 129.214 128.904 128.568C130.345 127.921 131.545 126.837 132.333 125.468L147.331 99.5217C148.127 98.1517 148.469 96.5647 148.307 94.9885C148.146 93.4122 147.489 91.9277 146.431 90.7479L136.307 79.9493ZM125.134 89.998L131.133 96.747L121.534 113.395L112.686 111.595C107.285 110.491 101.666 111.408 96.8973 114.173C92.1281 116.938 88.5401 121.357 86.8142 126.593L83.9646 134.992H64.7672L62.0676 126.443C60.3417 121.208 56.7537 116.788 51.9845 114.023C47.2153 111.258 41.597 110.341 36.1961 111.445L27.3473 113.245L17.5986 96.6721L23.5978 89.923C27.287 85.7984 29.3265 80.4587 29.3265 74.925C29.3265 69.3913 27.287 64.0517 23.5978 59.927L17.5986 53.178L27.1973 36.6802L36.0461 38.48C41.447 39.584 47.0653 38.6665 51.8345 35.9018C56.6037 33.1371 60.1917 28.7175 61.9176 23.482L64.7672 15.0082H83.9646L86.8142 23.557C88.5401 28.7925 92.1281 33.2121 96.8973 35.9768C101.666 38.7415 107.285 39.659 112.686 38.555L121.534 36.7552L131.133 53.4029L125.134 60.152C121.486 64.2672 119.472 69.5759 119.472 75.075C119.472 80.5741 121.486 85.8828 125.134 89.998ZM74.3659 45.0041C68.4333 45.0041 62.6339 46.7633 57.7011 50.0593C52.7683 53.3553 48.9236 58.04 46.6533 63.5211C44.383 69.0021 43.7889 75.0333 44.9463 80.8519C46.1037 86.6705 48.9606 92.0153 53.1556 96.2103C57.3506 100.405 62.6954 103.262 68.514 104.42C74.3326 105.577 80.3638 104.983 85.8448 102.713C91.3259 100.442 96.0106 96.5976 99.3066 91.6648C102.603 86.732 104.362 80.9326 104.362 75C104.362 67.0446 101.202 59.415 95.5762 53.7897C89.9509 48.1644 82.3213 45.0041 74.3659 45.0041ZM74.3659 89.998C71.3996 89.998 68.4999 89.1183 66.0335 87.4703C63.5671 85.8223 61.6448 83.48 60.5096 80.7395C59.3744 77.9989 59.0774 74.9834 59.6561 72.074C60.2348 69.1647 61.6632 66.4923 63.7607 64.3948C65.8582 62.2973 68.5306 60.8689 71.4399 60.2902C74.3493 59.7115 77.3649 60.0085 80.1054 61.1437C82.8459 62.2789 85.1883 64.2012 86.8363 66.6676C88.4842 69.134 89.3639 72.0337 89.3639 75C89.3639 78.9777 87.7837 82.7925 84.9711 85.6052C82.1584 88.4178 78.3436 89.998 74.3659 89.998Z" fill="currentColor"/>
</svg>
