<svg width="150" height="150" viewBox="0 0 150 150" fill="none" xmlns="http://www.w3.org/2000/svg">
<path d="M15 75C15 76.9891 15.7902 78.8968 17.1967 80.3033C18.6032 81.7098 20.5109 82.5 22.5 82.5H79.425L62.175 99.675C61.472 100.372 60.9141 101.202 60.5333 102.116C60.1525 103.03 59.9565 104.01 59.9565 105C59.9565 105.99 60.1525 106.97 60.5333 107.884C60.9141 108.798 61.472 109.628 62.175 110.325C62.8722 111.028 63.7017 111.586 64.6157 111.967C65.5296 112.347 66.5099 112.543 67.5 112.543C68.4901 112.543 69.4704 112.347 70.3843 111.967C71.2983 111.586 72.1278 111.028 72.825 110.325L102.825 80.325C103.508 79.6117 104.043 78.7706 104.4 77.85C105.15 76.024 105.15 73.976 104.4 72.15C104.043 71.2294 103.508 70.3883 102.825 69.675L72.825 39.675C72.1257 38.9757 71.2955 38.421 70.3819 38.0426C69.4682 37.6641 68.4889 37.4693 67.5 37.4693C66.5111 37.4693 65.5318 37.6641 64.6181 38.0426C63.7045 38.421 62.8743 38.9757 62.175 39.675C61.4757 40.3743 60.921 41.2045 60.5425 42.1181C60.1641 43.0318 59.9693 44.0111 59.9693 45C59.9693 45.9889 60.1641 46.9682 60.5425 47.8819C60.921 48.7955 61.4757 49.6257 62.175 50.325L79.425 67.5H22.5C20.5109 67.5 18.6032 68.2902 17.1967 69.6967C15.7902 71.1032 15 73.0109 15 75ZM112.5 0H37.5C31.5326 0 25.8097 2.37053 21.5901 6.5901C17.3705 10.8097 15 16.5326 15 22.5V45C15 46.9891 15.7902 48.8968 17.1967 50.3033C18.6032 51.7098 20.5109 52.5 22.5 52.5C24.4891 52.5 26.3968 51.7098 27.8033 50.3033C29.2098 48.8968 30 46.9891 30 45V22.5C30 20.5109 30.7902 18.6032 32.1967 17.1967C33.6032 15.7902 35.5109 15 37.5 15H112.5C114.489 15 116.397 15.7902 117.803 17.1967C119.21 18.6032 120 20.5109 120 22.5V127.5C120 129.489 119.21 131.397 117.803 132.803C116.397 134.21 114.489 135 112.5 135H37.5C35.5109 135 33.6032 134.21 32.1967 132.803C30.7902 131.397 30 129.489 30 127.5V105C30 103.011 29.2098 101.103 27.8033 99.6967C26.3968 98.2902 24.4891 97.5 22.5 97.5C20.5109 97.5 18.6032 98.2902 17.1967 99.6967C15.7902 101.103 15 103.011 15 105V127.5C15 133.467 17.3705 139.19 21.5901 143.41C25.8097 147.629 31.5326 150 37.5 150H112.5C118.467 150 124.19 147.629 128.41 143.41C132.629 139.19 135 133.467 135 127.5V22.5C135 16.5326 132.629 10.8097 128.41 6.5901C124.19 2.37053 118.467 0 112.5 0Z" fill="currentColor"/>
</svg>
