<svg width="150" height="150" viewBox="0 0 150 150" fill="none" xmlns="http://www.w3.org/2000/svg">
<path d="M15 75C15 73.0109 15.7902 71.1032 17.1967 69.6967C18.6032 68.2902 20.5109 67.5 22.5 67.5H79.425L62.175 50.325C61.4757 49.6257 60.921 48.7955 60.5425 47.8819C60.1641 46.9682 59.9693 45.9889 59.9693 45C59.9693 44.0111 60.1641 43.0318 60.5425 42.1181C60.921 41.2045 61.4757 40.3743 62.175 39.675C62.8743 38.9757 63.7045 38.421 64.6181 38.0426C65.5318 37.6641 66.5111 37.4693 67.5 37.4693C68.4889 37.4693 69.4682 37.6641 70.3819 38.0426C71.2955 38.421 72.1257 38.9757 72.825 39.675L102.825 69.675C103.508 70.3883 104.043 71.2294 104.4 72.15C105.15 73.976 105.15 76.024 104.4 77.85C104.043 78.7706 103.508 79.6117 102.825 80.325L72.825 110.325C72.1278 111.028 71.2983 111.586 70.3843 111.967C69.4704 112.347 68.4901 112.543 67.5 112.543C66.5099 112.543 65.5296 112.347 64.6157 111.967C63.7017 111.586 62.8722 111.028 62.175 110.325C61.472 109.628 60.9141 108.798 60.5333 107.884C60.1525 106.97 59.9565 105.99 59.9565 105C59.9565 104.01 60.1525 103.03 60.5333 102.116C60.9141 101.202 61.472 100.372 62.175 99.675L79.425 82.5H22.5C20.5109 82.5 18.6032 81.7098 17.1967 80.3033C15.7902 78.8968 15 76.9891 15 75ZM37.5 0H112.5C118.467 0 124.19 2.37053 128.41 6.5901C132.629 10.8097 135 16.5326 135 22.5V127.5C135 133.467 132.629 139.19 128.41 143.41C124.19 147.629 118.467 150 112.5 150H37.5C31.5326 150 25.8097 147.629 21.5901 143.41C17.3705 139.19 15 133.467 15 127.5V105C15 103.011 15.7902 101.103 17.1967 99.6967C18.6032 98.2902 20.5109 97.5 22.5 97.5C24.4891 97.5 26.3968 98.2902 27.8033 99.6967C29.2098 101.103 30 103.011 30 105V127.5C30 129.489 30.7902 131.397 32.1967 132.803C33.6032 134.21 35.5109 135 37.5 135H112.5C114.489 135 116.397 134.21 117.803 132.803C119.21 131.397 120 129.489 120 127.5V22.5C120 20.5109 119.21 18.6032 117.803 17.1967C116.397 15.7902 114.489 15 112.5 15H37.5C35.5109 15 33.6032 15.7902 32.1967 17.1967C30.7902 18.6032 30 20.5109 30 22.5V45C30 46.9891 29.2098 48.8968 27.8033 50.3033C26.3968 51.7098 24.4891 52.5 22.5 52.5C20.5109 52.5 18.6032 51.7098 17.1967 50.3033C15.7902 48.8968 15 46.9891 15 45V22.5C15 16.5326 17.3705 10.8097 21.5901 6.5901C25.8097 2.37053 31.5326 0 37.5 0Z" fill="black"/>
</svg>
