<svg width="150" height="150" viewBox="0 0 150 150" fill="none" xmlns="http://www.w3.org/2000/svg">
<path d="M117.109 144.82C115.746 144.82 114.552 144.487 113.359 143.821L75 119.353L36.6412 143.821C34.2544 145.319 31.1857 145.153 28.9694 143.655C26.7531 141.99 25.7302 139.16 26.4121 136.497L38.5165 94.8841L2.37394 65.0892C0.328135 63.4247 -0.524284 60.595 0.328135 57.9318C1.18055 55.2685 3.56733 53.604 6.29506 53.2711L49.4274 50.275L68.8626 8.8284C69.8855 6.49807 72.2723 5 75 5C77.7277 5 80.1145 6.49807 81.1374 8.8284L100.573 50.275L143.705 53.2711C146.433 53.4376 148.819 55.2685 149.672 57.9318C150.524 60.4286 149.672 63.2582 147.626 65.0892L111.654 94.7177L123.758 136.331C124.611 138.994 123.588 141.824 121.201 143.488C120.008 144.32 118.644 144.82 117.109 144.82ZM75 104.871C76.3639 104.871 77.5573 105.204 78.7506 105.87L105.687 123.015L97.3334 94.2183C96.6514 91.7215 97.5039 89.0583 99.5497 87.3938L125.975 65.5886L95.6285 63.2582C93.0713 63.0918 91.0255 61.5937 89.8321 59.4298L75 27.6375L60.1679 59.4298C59.145 61.5937 56.9287 63.0918 54.3715 63.2582L24.0254 65.4221L50.4503 87.2273C52.4962 88.8919 53.3486 91.5551 52.6666 94.0519L44.3129 123.015L71.2494 106.036C72.4427 105.204 73.6361 104.871 75 104.871Z" fill="currentColor"/>
</svg>
