<svg width="150" height="150" viewBox="0 0 150 150" fill="none" xmlns="http://www.w3.org/2000/svg">
<path d="M127.5 29.5H105V22C105 18.0218 103.42 14.2064 100.607 11.3934C97.7936 8.58035 93.9782 7 90 7H60C56.0218 7 52.2064 8.58035 49.3934 11.3934C46.5804 14.2064 45 18.0218 45 22V29.5H22.5C16.5326 29.5 10.8097 31.8705 6.5901 36.0901C2.37053 40.3097 0 46.0326 0 52V119.5C0 125.467 2.37053 131.19 6.5901 135.41C10.8097 139.629 16.5326 142 22.5 142H127.5C133.467 142 139.19 139.629 143.41 135.41C147.629 131.19 150 125.467 150 119.5V52C150 46.0326 147.629 40.3097 143.41 36.0901C139.19 31.8705 133.467 29.5 127.5 29.5ZM60 22H90V29.5H60V22ZM135 119.5C135 121.489 134.21 123.397 132.803 124.803C131.397 126.21 129.489 127 127.5 127H22.5C20.5109 127 18.6032 126.21 17.1967 124.803C15.7902 123.397 15 121.489 15 119.5V82H45V89.5C45 91.4891 45.7902 93.3968 47.1967 94.8033C48.6032 96.2098 50.5109 97 52.5 97C54.4891 97 56.3968 96.2098 57.8033 94.8033C59.2098 93.3968 60 91.4891 60 89.5V82H90V89.5C90 91.4891 90.7902 93.3968 92.1967 94.8033C93.6032 96.2098 95.5109 97 97.5 97C99.4891 97 101.397 96.2098 102.803 94.8033C104.21 93.3968 105 91.4891 105 89.5V82H135V119.5ZM135 67H15V52C15 50.0109 15.7902 48.1032 17.1967 46.6967C18.6032 45.2902 20.5109 44.5 22.5 44.5H127.5C129.489 44.5 131.397 45.2902 132.803 46.6967C134.21 48.1032 135 50.0109 135 52V67Z" fill="rgb(110,118,142)"/>
</svg>
