<svg width="150" height="150" viewBox="0 0 150 150" fill="none" xmlns="http://www.w3.org/2000/svg">
<path d="M82.5 90H52.5C50.5109 90 48.6032 90.7902 47.1967 92.1967C45.7902 93.6032 45 95.5109 45 97.5C45 99.4891 45.7902 101.397 47.1967 102.803C48.6032 104.21 50.5109 105 52.5 105H82.5C84.4891 105 86.3968 104.21 87.8033 102.803C89.2098 101.397 90 99.4891 90 97.5C90 95.5109 89.2098 93.6032 87.8033 92.1967C86.3968 90.7902 84.4891 90 82.5 90ZM112.5 15H103.65C102.103 10.6234 99.2395 6.83249 95.453 4.14704C91.6665 1.46159 87.1421 0.0130463 82.5 0H67.5C62.8579 0.0130463 58.3335 1.46159 54.547 4.14704C50.7605 6.83249 47.8974 10.6234 46.35 15H37.5C31.5326 15 25.8097 17.3705 21.5901 21.5901C17.3705 25.8097 15 31.5326 15 37.5V127.5C15 133.467 17.3705 139.19 21.5901 143.41C25.8097 147.629 31.5326 150 37.5 150H112.5C118.467 150 124.19 147.629 128.41 143.41C132.629 139.19 135 133.467 135 127.5V37.5C135 31.5326 132.629 25.8097 128.41 21.5901C124.19 17.3705 118.467 15 112.5 15V15ZM60 22.5C60 20.5109 60.7902 18.6032 62.1967 17.1967C63.6032 15.7902 65.5109 15 67.5 15H82.5C84.4891 15 86.3968 15.7902 87.8033 17.1967C89.2098 18.6032 90 20.5109 90 22.5V30H60V22.5ZM120 127.5C120 129.489 119.21 131.397 117.803 132.803C116.397 134.21 114.489 135 112.5 135H37.5C35.5109 135 33.6032 134.21 32.1967 132.803C30.7902 131.397 30 129.489 30 127.5V37.5C30 35.5109 30.7902 33.6032 32.1967 32.1967C33.6032 30.7902 35.5109 30 37.5 30H45V37.5C45 39.4891 45.7902 41.3968 47.1967 42.8033C48.6032 44.2098 50.5109 45 52.5 45H97.5C99.4891 45 101.397 44.2098 102.803 42.8033C104.21 41.3968 105 39.4891 105 37.5V30H112.5C114.489 30 116.397 30.7902 117.803 32.1967C119.21 33.6032 120 35.5109 120 37.5V127.5ZM97.5 60H52.5C50.5109 60 48.6032 60.7902 47.1967 62.1967C45.7902 63.6032 45 65.5109 45 67.5C45 69.4891 45.7902 71.3968 47.1967 72.8033C48.6032 74.2098 50.5109 75 52.5 75H97.5C99.4891 75 101.397 74.2098 102.803 72.8033C104.21 71.3968 105 69.4891 105 67.5C105 65.5109 104.21 63.6032 102.803 62.1967C101.397 60.7902 99.4891 60 97.5 60Z" fill="rgb(110,118,142)"/>
</svg>
