<svg width="150" height="150" viewBox="0 0 150 150" fill="none" xmlns="http://www.w3.org/2000/svg">
<path fill-rule="evenodd" clip-rule="evenodd" d="M60.0002 15C60.0002 6.71562 66.7158 0 75.0002 0C83.2846 0 90.0002 6.71562 90.0002 15C89.9921 23.2809 83.2811 29.9919 75.0002 30C66.7158 30 60.0002 23.2844 60.0002 15ZM65.0001 14.9999C65.0001 20.5228 69.4773 24.9999 75.0001 24.9999C80.5229 24.9999 85.0001 20.5228 85.0001 14.9999C85.0001 9.47713 80.5229 4.99994 75.0001 4.99994C69.4773 4.99994 65.0001 9.47713 65.0001 14.9999Z" fill="#ffffff"/>
<path fill-rule="evenodd" clip-rule="evenodd" d="M84.4098 32.5H84.9998C91.8998 32.5081 97.4917 38.1 97.4998 45V60C97.4998 64.1422 94.142 67.5 89.9998 67.5H59.9998C55.8576 67.5 52.4998 64.1422 52.4998 60V45C52.5079 38.1 58.0998 32.5081 64.9998 32.5H65.5898L66.1173 32.7625C71.7114 35.5478 78.2883 35.5478 83.8823 32.7625L84.4098 32.5ZM89.9998 62.5004C91.3804 62.5004 92.4998 61.381 92.4998 60.0004V45.0004C92.4991 41.0654 89.4573 37.7998 85.5323 37.5204C78.8529 40.6204 71.1469 40.6204 64.4673 37.5204C60.5419 37.7998 57.5004 41.0654 57.4998 45.0004V60.0004C57.4998 61.381 58.6191 62.5004 59.9998 62.5004H89.9998Z" fill="#ffffff"/>
<path fill-rule="evenodd" clip-rule="evenodd" d="M112.5 97.5002C112.5 89.2159 119.216 82.5002 127.5 82.5002C135.781 82.5084 142.492 89.2193 142.5 97.5002C142.5 105.785 135.784 112.5 127.5 112.5C119.216 112.5 112.5 105.785 112.5 97.5002ZM117.5 97.5002C117.5 103.023 121.977 107.5 127.5 107.5C133.023 107.5 137.5 103.023 137.5 97.5002C137.5 91.9774 133.023 87.5002 127.5 87.5002C121.977 87.5002 117.5 91.9774 117.5 97.5002Z" fill="#ffffff"/>
<path fill-rule="evenodd" clip-rule="evenodd" d="M136.91 115H137.5C144.4 115.009 149.992 120.6 150 127.5V142.5C150 146.643 146.642 150 142.5 150H112.5C108.358 150 105 146.643 105 142.5V127.5C105.008 120.6 110.6 115.009 117.5 115H118.09L118.618 115.25C124.212 118.035 130.789 118.035 136.383 115.25L136.91 115ZM142.5 145.001C143.881 145.001 145 143.881 145 142.501V127.501C144.999 123.566 141.958 120.3 138.033 120.021C131.353 123.121 123.647 123.121 116.968 120.021C113.042 120.3 110.001 123.566 110 127.501V142.501C110 143.881 111.119 145.001 112.5 145.001H142.5Z" fill="#ffffff"/>
<path fill-rule="evenodd" clip-rule="evenodd" d="M7.49991 97.5002C7.49991 89.2159 14.2155 82.5002 22.4999 82.5002C30.7808 82.5084 37.4918 89.2193 37.4999 97.5002C37.4999 105.785 30.7843 112.5 22.4999 112.5C14.2155 112.5 7.49991 105.785 7.49991 97.5002ZM12.4998 97.5002C12.4998 103.023 16.977 107.5 22.4998 107.5C28.0227 107.5 32.4998 103.023 32.4998 97.5002C32.4998 91.9774 28.0227 87.5002 22.4998 87.5002C16.977 87.5002 12.4998 91.9774 12.4998 97.5002Z" fill="#ffffff"/>
<path fill-rule="evenodd" clip-rule="evenodd" d="M31.91 115H32.5C39.4 115.009 44.9919 120.6 45 127.5V142.5C45 146.643 41.6422 150 37.5 150H7.5C3.35781 150 0 146.643 0 142.5V127.5C0.008125 120.6 5.6 115.009 12.5 115H13.09L13.6175 115.25C19.2116 118.035 25.7884 118.035 31.3825 115.25L31.91 115ZM37.4999 145.001C38.8806 145.001 39.9999 143.881 39.9999 142.501V127.501C39.9993 123.566 36.9578 120.3 33.0324 120.021C26.3528 123.121 18.6471 123.121 11.9674 120.021C8.04213 120.3 5.00057 123.566 4.99994 127.501V142.501C4.99994 143.881 6.11932 145.001 7.49994 145.001H37.4999Z" fill="#ffffff"/>
<path d="M99.802 126.961C99.8007 126.959 99.7995 126.956 99.7982 126.953C99.257 125.682 97.7885 125.091 96.5185 125.633V125.633C85.2295 130.364 72.692 131.227 60.861 128.088L63.201 127.4C64.5267 127.012 65.2867 125.623 64.8985 124.298C64.5104 122.972 63.1217 122.212 61.796 122.6L51.796 125.533C51.7585 125.533 51.731 125.575 51.696 125.588C51.4645 125.674 51.247 125.795 51.051 125.945C50.9642 125.992 50.8807 126.045 50.801 126.103C50.5373 126.338 50.3282 126.628 50.1885 126.953C50.0529 127.28 49.9882 127.631 49.9985 127.985C50.0595 128.324 50.1429 128.658 50.2485 128.985C50.2635 129.02 50.2485 129.06 50.276 129.095L55.276 138.663C55.9154 139.887 57.4263 140.362 58.651 139.723C59.8757 139.083 60.3504 137.572 59.711 136.348L57.676 132.458C71.1179 136.498 85.5495 135.713 98.4735 130.238C99.7448 129.7 100.34 128.233 99.802 126.961Z" fill="#ffffff"/>
<path d="M141.766 65.7326C140.789 64.7566 139.207 64.7566 138.231 65.7326L134.693 69.2701C132.623 47.3732 118.721 28.3713 98.4782 19.7701C97.2079 19.2288 95.7394 19.8198 95.1982 21.0901C94.6569 22.3604 95.2479 23.8288 96.5182 24.3701C114.678 32.0879 127.301 48.9541 129.586 68.5526L126.766 65.7326C125.773 64.7732 124.19 64.8007 123.231 65.7938C122.295 66.7626 122.295 68.2985 123.231 69.2676L130.731 76.7676C131.706 77.7451 133.289 77.7473 134.266 76.7719C134.268 76.7704 134.269 76.7688 134.271 76.7676L141.771 69.2676C142.745 68.2901 142.743 66.7076 141.766 65.7326Z" fill="#ffffff"/>
<path d="M54.9273 21.6475C54.9192 21.5015 54.8976 21.3568 54.8623 21.215C54.8623 21.1925 54.8348 21.1775 54.8248 21.1525C54.8148 21.1275 54.8248 21.11 54.8248 21.09C54.7567 20.9684 54.6779 20.8528 54.5898 20.745C54.5089 20.5984 54.4132 20.4603 54.3048 20.3325C54.157 20.2015 53.9932 20.09 53.8173 20C53.7295 19.9253 53.6357 19.8575 53.5373 19.7975L43.5373 15.23C42.2601 14.7056 40.7995 15.3159 40.2751 16.5931C39.7792 17.8009 40.2964 19.1872 41.4623 19.775L46.6398 22.1425C27.1482 32.574 14.9857 52.8925 14.9998 75C14.9998 76.3806 16.1192 77.5 17.4998 77.5C18.8804 77.5 19.9998 76.3806 19.9998 75C19.9873 55.5334 30.2814 37.515 47.0573 27.64L45.2498 31.4175C44.6539 32.6603 45.176 34.1509 46.4173 34.75C46.7545 34.9147 47.1245 35.0003 47.4998 35C48.4598 34.9987 49.3342 34.4478 49.7498 33.5825L54.7498 23.15C54.7498 23.125 54.7498 23.0975 54.7698 23.0725C54.8348 22.9015 54.8801 22.7237 54.9048 22.5425C54.9476 22.4078 54.9795 22.27 54.9998 22.13C54.9914 21.9672 54.9673 21.8056 54.9273 21.6475Z" fill="#ffffff"/>
</svg>
