<svg width="150" height="150" viewBox="0 0 150 150" fill="none" xmlns="http://www.w3.org/2000/svg">
<path d="M98.235 79.755L82.5 70.6725V37.5C82.5 35.5109 81.7098 33.6032 80.3033 32.1967C78.8968 30.7902 76.9891 30 75 30C73.0109 30 71.1032 30.7902 69.6967 32.1967C68.2902 33.6032 67.5 35.5109 67.5 37.5V75C67.5 76.3165 67.8466 77.6098 68.5049 78.7499C69.1631 79.89 70.1099 80.8367 71.25 81.495L90.735 92.745C91.5883 93.2452 92.5321 93.5717 93.5121 93.7057C94.4921 93.8397 95.4889 93.7785 96.4451 93.5257C97.4013 93.2729 98.2981 92.8334 99.0839 92.2326C99.8696 91.6318 100.529 90.8815 101.023 90.0249C101.518 89.1684 101.838 88.2224 101.966 87.2416C102.093 86.2607 102.025 85.2643 101.766 84.3098C101.507 83.3552 101.062 82.4614 100.456 81.6797C99.8495 80.898 99.0948 80.2438 98.235 79.755V79.755ZM75 0C60.1664 0 45.6659 4.39867 33.3323 12.6398C20.9986 20.8809 11.3856 32.5943 5.70907 46.2987C0.0324963 60.0032 -1.45275 75.0832 1.44114 89.6317C4.33503 104.18 11.4781 117.544 21.967 128.033C32.456 138.522 45.8197 145.665 60.3682 148.559C74.9168 151.453 89.9968 149.968 103.701 144.291C117.406 138.614 129.119 129.001 137.36 116.668C145.601 104.334 150 89.8336 150 75C149.978 55.1155 142.069 36.0516 128.009 21.9911C113.948 7.93061 94.8845 0.021837 75 0V0ZM75 135C63.1331 135 51.5328 131.481 41.6658 124.888C31.7989 118.295 24.1085 108.925 19.5673 97.961C15.026 86.9974 13.8378 74.9334 16.1529 63.2946C18.468 51.6557 24.1825 40.9647 32.5736 32.5736C40.9648 24.1824 51.6557 18.468 63.2946 16.1529C74.9335 13.8378 86.9974 15.026 97.961 19.5672C108.925 24.1085 118.295 31.7988 124.888 41.6658C131.481 51.5327 135 63.1331 135 75C134.98 90.9069 128.652 106.157 117.404 117.404C106.157 128.652 90.9069 134.98 75 135Z" fill="currentColor"/>
</svg>
