<svg width="150" height="150" viewBox="0 0 150 150" fill="none" xmlns="http://www.w3.org/2000/svg">
<path d="M127.867 48.4615L122.857 143.736C122.695 147.198 119.786 150 116.392 150H34.6081C31.214 150 28.3047 147.198 28.143 143.736L23.1326 48.4615C22.9709 44.8352 25.7186 41.7033 29.2744 41.5385C32.8302 41.3736 35.9012 44.1758 36.0628 47.8022L40.75 136.813H110.412L115.099 47.8022C115.26 44.1758 118.331 41.3736 121.887 41.5385C125.281 41.7033 128.029 44.8352 127.867 48.4615ZM145 26.3736C145 30 142.091 32.967 138.535 32.967H12.4651C8.9093 32.967 6 30 6 26.3736C6 22.7473 8.9093 19.7802 12.4651 19.7802H48.0233V4.94506C48.0233 1.81319 50.1244 0 53.1954 0H97.8046C100.876 0 102.977 1.81319 102.977 4.94506V19.7802H138.535C142.091 19.7802 145 22.7473 145 26.3736ZM59.3372 19.7802H91.6628V11.5385H59.3372V19.7802ZM62.0849 126.923C65.3174 126.923 67.7419 123.791 67.7419 120.659L66.1256 49.4506C66.1256 46.3187 63.5395 43.6813 60.307 43.6813C57.236 43.6813 54.65 46.3187 54.8116 49.6154L56.4279 120.989C56.4279 124.121 59.014 126.923 62.0849 126.923ZM88.7535 126.923C91.8244 126.923 94.4105 124.286 94.4105 121.154L96.0267 49.9451C96.0267 46.8132 93.6023 44.011 90.5314 44.011C87.2988 44.011 84.8744 46.4835 84.7128 49.6154L83.0965 120.824C82.9349 124.121 85.5209 126.923 88.7535 126.923C88.5919 126.923 88.5919 126.923 88.7535 126.923Z" fill="currentColor"/>
</svg>
