<svg width="150" height="150" viewBox="0 0 150 150" fill="none" xmlns="http://www.w3.org/2000/svg">
<path d="M126.3 37.6316H106.65L63.75 15.0526L15 40.7174V112.895C11.0218 112.895 7.20644 111.309 4.3934 108.486C1.58035 105.663 0 101.834 0 97.8421V38.9111C0 33.8684 2.1 30.5568 6.075 28.6753L63.75 0L120.375 28.6753C123.75 30.7826 125.85 33.8684 126.3 37.6316ZM37.5 45.1579H135C138.978 45.1579 142.794 46.7438 145.607 49.5667C148.42 52.3896 150 56.2183 150 60.2105V127.947C150 131.94 148.42 135.768 145.607 138.591C142.794 141.414 138.978 143 135 143H37.5C33.5218 143 29.7064 141.414 26.8934 138.591C24.0804 135.768 22.5 131.94 22.5 127.947V60.2105C22.5 56.2183 24.0804 52.3896 26.8934 49.5667C29.7064 46.7438 33.5218 45.1579 37.5 45.1579ZM135 72.7795V60.2105L86.25 85.1226L37.5 60.2105V72.7795L86.25 97.8421L135 72.7795Z" fill="currentColor"/>
</svg>
