<svg width="150" height="150" viewBox="0 0 150 150" fill="none" xmlns="http://www.w3.org/2000/svg">
<path d="M102.286 80.3199C109.635 74.5382 114.999 66.6097 117.632 57.6376C120.265 48.6654 120.035 39.0957 116.976 30.2598C113.917 21.4239 108.18 13.7612 100.563 8.33783C92.9458 2.91443 83.8278 0 74.4773 0C65.1268 0 56.0088 2.91443 48.3918 8.33783C40.7748 13.7612 35.0376 21.4239 31.9784 30.2598C28.9192 39.0957 28.69 48.6654 31.3229 57.6376C33.9557 66.6097 39.3196 74.5382 46.6683 80.3199C34.0762 85.3648 23.0891 93.7323 14.8784 104.53C6.66763 115.328 1.54107 128.152 0.0452127 141.635C-0.0630654 142.619 0.0235992 143.615 0.300256 144.566C0.576914 145.517 1.03815 146.404 1.65762 147.176C2.9087 148.737 4.72839 149.736 6.71637 149.955C8.70434 150.173 10.6978 149.593 12.2581 148.342C13.8184 147.091 14.8179 145.272 15.0366 143.284C16.6825 128.631 23.6692 115.098 34.6619 105.271C45.6545 95.4445 59.8825 90.012 74.6272 90.012C89.372 90.012 103.6 95.4445 114.593 105.271C125.585 115.098 132.572 128.631 134.218 143.284C134.422 145.125 135.3 146.826 136.685 148.058C138.069 149.29 139.86 149.966 141.714 149.955H142.538C144.503 149.729 146.299 148.735 147.534 147.191C148.77 145.646 149.345 143.676 149.134 141.71C147.631 128.189 142.477 115.332 134.224 104.517C125.971 93.7029 114.931 85.3381 102.286 80.3199ZM74.4773 74.998C68.5473 74.998 62.7504 73.2395 57.8198 69.945C52.8892 66.6504 49.0462 61.9678 46.7769 56.4892C44.5076 51.0105 43.9138 44.982 45.0707 39.1659C46.2276 33.3498 49.0832 28.0074 53.2763 23.8143C57.4695 19.6211 62.8119 16.7656 68.628 15.6087C74.444 14.4518 80.4726 15.0455 85.9512 17.3148C91.4298 19.5842 96.1125 23.4271 99.407 28.3578C102.702 33.2884 104.46 39.0852 104.46 45.0153C104.46 52.9672 101.301 60.5934 95.6783 66.2162C90.0554 71.8391 82.4292 74.998 74.4773 74.998Z" fill="currentColor"/>
</svg>
