<svg width="150" height="150" viewBox="0 0 150 150" fill="none" xmlns="http://www.w3.org/2000/svg">
<path fill-rule="evenodd" clip-rule="evenodd" d="M113.616 22.7085C113.566 22.3098 112.377 13.7047 104.298 10.3101C104.533 8.79883 104.508 6.85647 103.552 4.96674C102.265 2.42692 99.7275 0.771827 96.0078 0.0467507C95.8483 0.0155836 95.6864 0 95.5237 0H61.4533C47.6189 0 36.3636 11.2854 36.3636 25.1577V38.5628C36.3636 42.0553 37.5509 45.4611 39.7062 48.152C40.7748 49.4863 42.0908 51.8165 42.2893 55.3396C42.3302 56.0648 42.6687 56.7031 43.182 57.139V59.4494C43.182 59.4681 43.1823 59.4867 43.1825 59.5054C43.1986 60.2242 43.691 76.4398 54.5454 85.0071V91.8108L48.873 93.9861C48.1839 93.2442 47.1276 92.9862 46.1823 93.3369L14.6394 105.015C8.72514 107.203 4.41267 112.508 3.38521 118.857L0.124732 139.005C-0.319362 141.75 0.434517 144.54 2.19279 146.662C3.95135 148.784 6.51927 150 9.23755 150H74.7456C74.7643 150 74.783 150 74.8017 150C74.8265 150 74.8512 149.999 74.8759 149.998C74.9089 149.999 74.942 150 74.9753 150H74.9945H75H75.0246C75.0579 150 75.0911 149.999 75.1241 149.998C75.1556 149.999 75.1873 150 75.2189 150H75.2241L75.2538 150L75.2759 150H140.759C143.479 150 146.048 148.784 147.807 146.662C149.566 144.54 150.32 141.749 149.875 139.005L146.613 118.857C145.585 112.508 141.271 107.203 135.354 105.014L103.796 93.3366C102.852 92.9875 101.8 93.2428 101.11 93.9797L95.4545 91.8111V86.2349L95.5272 86.1845L95.6027 86.1323C95.6744 86.0829 95.7465 86.0336 95.8189 85.9844L96.0103 85.8523L96.0299 85.8386C96.0858 85.7997 96.1418 85.7606 96.1995 85.7225C100.361 82.9663 107.568 75.8543 109.081 59.1904C109.087 59.1157 109.091 59.0402 109.091 58.965V53.4064C109.75 51.4678 110.663 49.2948 111.898 47.3087C113.035 45.479 113.636 43.3929 113.636 41.2758V23.0299C113.636 22.9225 113.63 22.8152 113.616 22.7085ZM42.718 110.438L47.2065 101.227L59.8977 125.912C60.0752 126.258 60.3196 126.55 60.6089 126.774L64.4756 134.244L48.7297 119.505L51.3806 114.326C51.7879 113.531 51.7625 112.576 51.3143 111.804C50.8658 111.032 50.0582 110.554 49.1809 110.54L42.718 110.438ZM67.3048 129.441L69.0237 118.922L64.9401 124.871L67.3048 129.441ZM85.0528 124.861L82.7146 129.383L81.0141 118.977L85.0528 124.861ZM72.3387 114.091L74.0451 116.471C74.4366 117.016 74.5956 117.688 74.4881 118.345L71.5886 136.088L74.9847 142.082L78.4262 136.007L75.5399 118.345C75.4326 117.688 75.5913 117.016 75.9829 116.471L77.6746 114.112L74.9994 110.214L72.3387 114.091ZM83.7178 112.051C83.8154 112.151 83.9057 112.26 83.9874 112.378L88.2687 118.579L98.5517 98.5787L93.5252 96.6508L79.5102 106.468L83.5761 111.844C83.627 111.911 83.6743 111.98 83.7178 112.051ZM75.8476 102.407L90.4209 91.9896V90.2567C89.6055 90.8797 88.7952 91.4296 87.9965 91.9147C81.0747 97.0025 74.7437 96.6037 73.3891 96.4466H73.3597C68.8574 96.4469 63.3339 92.9386 59.5791 90.0782V91.9894L74.0533 102.336C74.2513 102.292 74.4551 102.27 74.6607 102.273C74.7212 102.272 74.782 102.273 74.8429 102.277C74.8635 102.276 74.8841 102.275 74.9047 102.274C74.9345 102.273 74.9642 102.272 74.9939 102.272C74.9966 102.272 74.9994 102.272 75.0021 102.272C75.0172 102.272 75.0322 102.273 75.0473 102.273C75.321 102.278 75.591 102.323 75.8476 102.407ZM102.782 101.249L90.1019 125.912C89.9277 126.251 89.6888 126.539 89.4064 126.761L85.5754 134.168L101.247 119.504L98.5957 114.326C98.1885 113.53 98.2136 112.576 98.6623 111.804C99.1106 111.032 99.9189 110.554 100.797 110.54L107.262 110.438L102.782 101.249ZM51.4474 98.5784L56.4757 96.6502L70.3161 106.345L66.4219 111.678C66.2877 111.861 66.1805 112.057 66.0995 112.259C66.0704 112.296 66.0421 112.335 66.0147 112.374L61.7291 118.577L51.4474 98.5784ZM85.3587 20.6988L87.7901 21.5547L98.5425 25.2772L98.5771 25.2895C105.138 27.6663 107.635 32.599 108.559 35.4867V23.2227C108.387 22.2174 107.069 16.0025 100.606 14.4427C99.8646 14.2636 99.2423 13.7597 98.9121 13.0702C98.5822 12.3807 98.5784 11.5789 98.9031 10.8864C98.9039 10.8847 99.8042 8.78059 99.0139 7.25252C98.3685 6.00407 96.6671 5.39043 95.2672 5.0914H61.4525C50.4177 5.0914 41.4397 14.0937 41.4397 25.1586V38.5634C41.4397 39.9862 41.7323 41.3852 42.2851 42.666V37.4276C42.2851 37.2412 42.3056 37.0553 42.3461 36.8733C44.894 25.4224 55.0186 23.9787 55.4482 23.9228C55.5564 23.909 55.6655 23.9019 55.7743 23.9019H66.9997C67.7692 23.9019 68.5225 23.7849 69.2389 23.5547C70.8138 23.0484 73.438 22.0984 76.8267 20.8076C78.2451 20.2666 79.742 19.9957 81.2399 19.9957C82.6328 19.9957 84.0265 20.2298 85.3587 20.6988ZM79.8381 25.9793C81.291 25.4346 82.8825 25.3568 84.3774 25.7487L95.4756 29.6552C101.374 31.8369 102.426 37.0289 102.557 37.8445V58.8197C102.557 59.7183 103.023 60.5137 103.733 60.9667C101.956 74.4437 95.9454 79.8073 93.3441 81.5302C93.2851 81.5694 93.2264 81.6094 93.168 81.6497L93.0555 81.7276L92.9248 81.8184C92.428 81.821 91.9338 81.9776 91.5096 82.2841C90.0125 83.3652 88.6232 84.5106 87.3806 85.688C86.2486 86.7607 85.126 87.6299 84.0402 88.3334C79.1433 90.87 75.2503 90.3902 75.0049 90.3562C74.8561 90.3343 74.7053 90.325 74.5548 90.3291C71.8318 90.3979 66.9223 87.9441 61.7286 83.9215C60.9342 83.3061 60.1197 82.7198 59.3076 82.1794L59.2446 82.1356C59.1831 82.0925 59.1219 82.0496 59.0497 82.0023C48.9829 75.4315 48.3243 60.0547 48.3021 59.413V38.034C50.0467 30.918 56.0165 29.5539 56.9895 29.3778H68.1086C69.4161 29.3778 70.7017 29.1809 71.9306 28.7924C74.044 28.1239 77.3972 26.8937 79.8381 25.9793ZM143.95 143.316C143.153 144.277 141.99 144.828 140.759 144.828H81.6748L106.098 121.977C106.946 121.185 107.165 119.909 106.632 118.868L104.982 115.647L111.358 115.546C112.227 115.533 113.027 115.064 113.479 114.304C113.93 113.545 113.969 112.602 113.582 111.806L108.021 100.4L133.635 109.878C137.834 111.432 140.895 115.196 141.625 119.702L144.887 139.849V139.85C145.088 141.092 144.747 142.355 143.95 143.316ZM6.04845 143.316C6.84437 144.277 8.00701 144.828 9.23798 144.828H68.2948L43.8825 121.976C43.0364 121.184 42.8174 119.908 43.3497 118.868L44.9987 115.646L38.6261 115.546C37.7575 115.532 36.9566 115.063 36.5055 114.304C36.0538 113.544 36.0153 112.601 36.403 111.805L41.961 100.4L16.3592 109.878C12.1621 111.432 9.10192 115.196 8.37286 119.702L5.11238 139.849C4.9115 141.092 5.25253 142.356 6.04845 143.316Z" fill="#ffffff"/>
</svg>
